<svg width="31" height="31" viewBox="0 0 31 31" fill="none" xmlns="http://www.w3.org/2000/svg">
<path d="M18.1185 28.4557C17.3469 28.1617 17.0399 27.3691 16.6507 26.7061L15.7464 25.175C15.5282 25.6003 15.2611 26.0036 15.0212 26.4173L14.5687 27.2138C14.398 27.5187 14.2379 27.8257 13.9907 28.0779C12.9486 29.1414 11.0004 28.1288 11.4241 26.6409C11.4921 26.4022 11.6189 26.1769 11.7353 25.959L13.833 22.068L6.78294 10.5689C6.58811 10.2339 6.65298 10.221 6.32248 10.0258L3.1542 7.83473C2.06636 6.98588 1.00907 5.8466 1.96352 4.47247C3.08411 2.85913 6.0802 1.91075 7.98892 2.48908C9.05438 2.81191 8.988 3.43307 9.07905 4.41957L9.36757 7.93287C9.37601 8.06676 9.37554 8.20744 9.39897 8.33946L9.40261 8.35891C9.47233 8.75512 9.90769 9.19299 10.1371 9.51801L11.7076 11.9147C11.7597 11.9972 11.9426 12.246 11.9649 12.3134L11.9709 11.0089C11.9714 10.3538 11.9719 10.2316 11.7471 9.61053L10.0587 5.39783C9.74544 4.69315 9.83808 4.42457 10.3987 3.84816C11.3388 2.88158 12.6293 2.31374 13.9785 2.29688C15.2685 2.30343 16.3249 2.63293 17.3555 3.45514C17.6981 3.7284 18.4099 4.38857 18.3936 4.85381C18.3891 4.98497 18.3264 5.11684 18.2823 5.23946L16.506 9.71055C16.3318 10.1138 16.2316 10.2429 16.2298 10.6805L16.2284 18.3663C16.2289 18.5906 16.2205 18.8181 16.2452 19.0413C16.3548 18.9253 16.4237 18.7806 16.4948 18.6397L21.4121 9.51608C21.5589 9.25574 21.7375 8.99541 21.8555 8.72166C21.9747 8.44528 22.0365 8.13666 22.1385 7.85166L23.4502 4.49853C23.6487 4.02392 23.7635 3.51424 24.4034 3.86248L27.8395 5.70664C28.491 6.0615 28.8894 6.20357 28.2249 6.97006L25.5853 9.97194C25.1536 10.4415 24.9328 10.7788 24.5953 11.3204L17.9971 22.2496C17.8654 22.4669 17.8369 22.3905 17.9513 22.6006L19.5801 25.6322C19.7437 25.9408 19.9663 26.2449 20.0626 26.5816C20.4066 27.7837 19.2721 28.8034 18.1185 28.4557ZM13.884 3.21619C12.7945 3.29537 11.6643 3.77154 10.942 4.6122C10.8955 4.66645 10.8335 4.73573 10.8084 4.80339L12.7519 9.69438C12.8278 9.69625 12.9204 9.70791 12.9945 9.69678L12.7305 6.54244C12.7275 6.45074 12.7193 6.35081 12.7299 6.25997C12.7867 5.77218 13.5266 5.71252 13.6441 6.47658L13.892 9.67088C14.0426 9.69496 14.2269 9.67762 14.3812 9.67774L14.3995 9.52569C14.4308 9.18291 14.4956 8.86891 14.5464 8.55666L14.7616 7.19571C14.8103 6.89916 14.8143 6.57684 14.89 6.2875C14.9864 5.91948 15.4453 5.77976 15.6987 6.09865C15.8626 6.30486 15.7535 6.84438 15.7166 7.09035L15.3379 9.39895C15.325 9.49422 15.3021 9.60192 15.3137 9.69778C15.5759 9.85662 15.7184 9.24625 15.7734 9.10604L17.4298 4.91701C17.4562 4.83746 17.4179 4.82154 17.3695 4.76048L17.1921 4.5533C16.4657 3.75506 14.9992 3.07631 13.884 3.21619ZM6.65579 3.24553C5.49524 3.30974 4.40466 3.63478 3.4553 4.31882C2.28184 5.16431 2.18013 5.75902 3.28465 6.74389L5.4634 8.33699L6.37214 8.96389C6.61876 9.13276 6.89011 9.30063 7.11376 9.49944C7.28644 9.38348 8.41536 8.73836 8.45192 8.6251C8.46622 8.58074 8.45474 8.50293 8.45427 8.45371L8.12321 3.8983C8.1122 3.80696 8.1054 3.63924 8.05061 3.56465C7.9077 3.37007 7.42858 3.28152 7.19561 3.26074L6.65579 3.24553ZM24.2918 4.84083L22.8555 8.54658L24.6996 9.59231L25.2937 8.93319L27.3885 6.52223L24.2918 4.84083ZM22.5109 9.41688L16.6409 20.2734L17.1181 21.1383C17.1922 21.2716 17.2734 21.4761 17.3772 21.5829L17.7055 21.0164L24.1308 10.3478L22.5109 9.41688ZM8.92929 9.44289C8.55317 9.75748 8.08888 10.0018 7.64022 10.1947C7.86903 10.6378 8.15474 11.0622 8.41161 11.4902L17.7178 26.6973C17.8574 26.9338 17.9854 27.1841 18.1546 27.401C18.5418 27.8112 19.1904 27.5291 19.2093 27.0268C19.2194 26.7552 18.8914 26.2792 18.7529 26.0322L16.4799 21.8574L10.7551 12.1105L8.92929 9.44289ZM14.094 10.6003L12.8853 10.6004L12.8885 12.6132C12.8886 12.983 12.8616 13.3718 12.9103 13.7374L12.9138 13.7668C12.9479 14.0457 13.2629 14.4756 13.4042 14.7211L14.8582 17.2355L15.1891 17.8067C15.2231 17.8673 15.2722 17.9273 15.2978 17.9904L15.3099 10.5978L14.094 10.6003ZM14.3912 22.9454L12.601 26.247C12.4577 26.5134 12.2282 26.8645 12.3266 27.1803C12.4262 27.5 12.7869 27.6606 13.0985 27.587C13.422 27.4455 13.5877 27.0852 13.7536 26.7956L14.7866 25.03C14.9319 24.7855 15.0844 24.5359 15.2015 24.2764L14.3912 22.9454Z" fill="black"/>
</svg>
