<svg width="50" height="50" viewBox="0 0 50 50" fill="none" xmlns="http://www.w3.org/2000/svg">
<rect width="50" height="50" rx="25" fill="#FBE6EA"/>
<path d="M40.4166 35.7829L37.6666 36.4329C37.0499 36.5829 36.5666 37.0495 36.4332 37.6662L35.8499 40.1162C35.5332 41.4495 33.8332 41.8662 32.9499 40.8162L27.9666 35.0829C27.5666 34.6162 27.7832 33.8829 28.3832 33.7329C31.3332 33.0162 33.9832 31.3662 35.9332 29.0162C36.2499 28.6329 36.8166 28.5829 37.1666 28.9329L40.8666 32.6329C42.1332 33.8995 41.6832 35.4829 40.4166 35.7829Z" fill="#FF8A00"/>
<path d="M9.50003 35.7829L12.25 36.4329C12.8667 36.5829 13.35 37.0495 13.4834 37.6662L14.0667 40.1162C14.3834 41.4495 16.0834 41.8662 16.9667 40.8162L21.95 35.0829C22.35 34.6162 22.1334 33.8829 21.5334 33.7329C18.5834 33.0162 15.9334 31.3662 13.9834 29.0162C13.6667 28.6329 13.1 28.5829 12.75 28.9329L9.05003 32.6329C7.78336 33.8995 8.23336 35.4829 9.50003 35.7829Z" fill="#FF8A00"/>
<path d="M24.9999 8.33398C18.5499 8.33398 13.3333 13.5507 13.3333 20.0007C13.3333 22.4173 14.0499 24.634 15.2833 26.484C17.0833 29.1507 19.9333 31.034 23.2499 31.5173C23.8166 31.6173 24.3999 31.6673 24.9999 31.6673C25.5999 31.6673 26.1833 31.6173 26.7499 31.5173C30.0666 31.034 32.9166 29.1507 34.7166 26.484C35.9499 24.634 36.6666 22.4173 36.6666 20.0007C36.6666 13.5507 31.4499 8.33398 24.9999 8.33398ZM30.0999 19.634L28.7166 21.0173C28.4833 21.2507 28.3499 21.7007 28.4333 22.034L28.8333 23.7507C29.1499 25.1007 28.4333 25.634 27.2333 24.9173L25.5666 23.934C25.2666 23.7507 24.7666 23.7507 24.4666 23.934L22.7999 24.9173C21.5999 25.6173 20.8833 25.1007 21.1999 23.7507L21.5999 22.034C21.6666 21.7173 21.5499 21.2507 21.3166 21.0173L19.8999 19.634C19.0833 18.8173 19.3499 18.0007 20.4833 17.8173L22.2666 17.5173C22.5666 17.4673 22.9166 17.2007 23.0499 16.934L24.0333 14.9673C24.5666 13.9007 25.4333 13.9007 25.9666 14.9673L26.9499 16.934C27.0833 17.2007 27.4333 17.4673 27.7499 17.5173L29.5333 17.8173C30.6499 18.0007 30.9166 18.8173 30.0999 19.634Z" fill="#FF8A00"/>
</svg>
