<svg width="31" height="30" viewBox="0 0 31 30" fill="none" xmlns="http://www.w3.org/2000/svg">
<path d="M28 20.9251V5.83761C28 4.33761 26.775 3.22511 25.2875 3.35011H25.2125C22.5875 3.57511 18.6 4.91261 16.375 6.31261L16.1625 6.45011C15.8 6.67511 15.2 6.67511 14.8375 6.45011L14.525 6.26261C12.3 4.87511 8.325 3.55011 5.7 3.33761C4.2125 3.21261 3 4.33761 3 5.82511V20.9251C3 22.1251 3.975 23.2501 5.175 23.4001L5.5375 23.4501C8.25 23.8126 12.4375 25.1876 14.8375 26.5001L14.8875 26.5251C15.225 26.7126 15.7625 26.7126 16.0875 26.5251C18.4875 25.2001 22.6875 23.8126 25.4125 23.4501L25.825 23.4001C27.025 23.2501 28 22.1251 28 20.9251Z" stroke="#292D32" stroke-width="1.5" stroke-linecap="round" stroke-linejoin="round"/>
<path d="M15.5 6.86328V25.6133" stroke="#292D32" stroke-width="1.5" stroke-linecap="round" stroke-linejoin="round"/>
<path d="M10.1875 10.6133H7.375" stroke="#292D32" stroke-width="1.5" stroke-linecap="round" stroke-linejoin="round"/>
<path d="M11.125 14.3633H7.375" stroke="#292D32" stroke-width="1.5" stroke-linecap="round" stroke-linejoin="round"/>
</svg>
