<svg width="31" height="31" viewBox="0 0 31 31" fill="none" xmlns="http://www.w3.org/2000/svg">
<path d="M27.4861 14.1594C25.9138 12.4798 23.9673 11.1949 21.8049 10.4094H21.7627H21.7205C21.7205 10.4094 21.6877 10.4094 21.6689 10.4094H21.5939H21.5002L21.4299 10.4422L21.3455 10.4984C21.3259 10.5165 21.3085 10.537 21.2939 10.5594C21.2725 10.5839 21.2536 10.6106 21.2377 10.6391C21.2377 10.6391 21.2377 10.6672 21.2143 10.6812C21.1908 10.6953 21.2143 10.7094 21.2143 10.7234C21.2162 10.7374 21.2162 10.7516 21.2143 10.7656C21.1346 11.2344 21.0596 11.6422 20.9939 12.0359C20.9049 11.5156 20.8064 10.9391 20.6939 10.3156C20.6966 10.3017 20.6966 10.2874 20.6939 10.2734C20.6896 10.2409 20.6801 10.2092 20.6658 10.1797L20.6377 10.1234C20.62 10.0949 20.5996 10.0682 20.5768 10.0437L20.5346 10.0062C20.5062 9.98312 20.4746 9.96418 20.4408 9.94999H20.3986H20.3658C19.0866 9.60699 17.7745 9.40114 16.4518 9.33593H16.3955C16.3612 9.33334 16.3267 9.33334 16.2924 9.33593L16.2268 9.36874C16.1946 9.38128 16.1646 9.39867 16.1377 9.4203L16.0814 9.47655L16.0252 9.55155C16.0122 9.57885 16.0013 9.60705 15.9924 9.63593C15.9905 9.6562 15.9905 9.6766 15.9924 9.69687C15.833 10.5687 15.6924 11.3516 15.5752 12.0406C15.458 11.3422 15.3174 10.5594 15.158 9.69687C15.158 9.67343 15.158 9.65468 15.1346 9.63124C15.1256 9.60542 15.1146 9.58034 15.1018 9.55624C15.0823 9.52217 15.0587 9.49068 15.0314 9.46249L14.9189 9.40624C14.8868 9.37979 14.8503 9.35917 14.8111 9.3453H14.7596C14.7254 9.34043 14.6906 9.34043 14.6564 9.3453H14.6002C13.2804 9.38291 11.9684 9.56046 10.6861 9.87499H10.6533H10.6205C10.5831 9.88965 10.5483 9.91022 10.5174 9.93593L10.4893 9.96405C10.4618 9.99156 10.4367 10.0214 10.4143 10.0531V10.0953C10.4012 10.1274 10.3903 10.1603 10.3814 10.1937C10.3799 10.2046 10.3799 10.2157 10.3814 10.2266C10.2643 10.8594 10.1658 11.4406 10.0768 11.9656C10.0111 11.5719 9.93613 11.1453 9.85644 10.6953C9.85445 10.6813 9.85445 10.6671 9.85644 10.6531C9.85644 10.6531 9.85644 10.625 9.85644 10.6109C9.85644 10.5969 9.85644 10.5875 9.833 10.5687C9.80957 10.55 9.80019 10.5125 9.78144 10.4891C9.76354 10.4665 9.74309 10.446 9.7205 10.4281L9.6455 10.3719L9.5705 10.3391H9.48144H9.38769C9.38769 10.3391 9.35488 10.3391 9.33613 10.3391H9.29394H9.25175C7.06132 11.1381 5.09288 12.4477 3.50957 14.1594C2.91981 14.8016 2.53202 15.6031 2.3945 16.4641C2.25697 17.3251 2.37578 18.2076 2.73613 19.0016C3.08835 19.8152 3.67214 20.5072 4.41478 20.9915C5.15743 21.4757 6.02612 21.7308 6.91269 21.725H24.0877C24.9743 21.7308 25.843 21.4757 26.5856 20.9915C27.3282 20.5072 27.912 19.8152 28.2643 19.0016C28.6252 18.2074 28.7439 17.3244 28.6055 16.4631C28.4671 15.6018 28.0777 14.8005 27.4861 14.1594ZM27.4064 18.6219C27.1268 19.2687 26.663 19.8189 26.0729 20.204C25.4827 20.5891 24.7923 20.792 24.0877 20.7875H6.91269C6.20804 20.792 5.51764 20.5891 4.9275 20.204C4.33737 19.8189 3.87358 19.2687 3.59394 18.6219C3.30899 17.9933 3.21483 17.2948 3.32316 16.6132C3.43148 15.9316 3.73752 15.2968 4.20332 14.7875C5.54601 13.3533 7.18142 12.2247 8.99863 11.4781C9.28184 12.8815 9.47443 14.3016 9.57519 15.7297C9.57519 15.854 9.62458 15.9732 9.71248 16.0611C9.80039 16.149 9.91962 16.1984 10.0439 16.1984C10.1683 16.1984 10.2875 16.149 10.3754 16.0611C10.4633 15.9732 10.5127 15.854 10.5127 15.7297C10.6438 14.0493 10.8802 12.3789 11.2205 10.7281C12.2108 10.4825 13.2211 10.3256 14.2393 10.2594C14.6151 12.0649 14.8797 13.8917 15.0314 15.7297C15.0314 15.854 15.0808 15.9732 15.1687 16.0611C15.2566 16.149 15.3759 16.1984 15.5002 16.1984C15.6245 16.1984 15.7437 16.149 15.8316 16.0611C15.9196 15.9732 15.9689 15.854 15.9689 15.7297C16.12 13.8855 16.3845 12.0523 16.7611 10.2406C17.7793 10.3069 18.7895 10.4638 19.7799 10.7094C20.1201 12.3601 20.3565 14.0306 20.4877 15.7109C20.4877 15.8352 20.5371 15.9545 20.625 16.0424C20.7129 16.1303 20.8321 16.1797 20.9564 16.1797C21.0808 16.1797 21.2 16.1303 21.2879 16.0424C21.3758 15.9545 21.4252 15.8352 21.4252 15.7109C21.526 14.2828 21.7185 12.8627 22.0018 11.4594C23.8207 12.2114 25.4562 13.3466 26.7971 14.7875C27.2629 15.2968 27.5689 15.9316 27.6772 16.6132C27.7855 17.2948 27.6914 17.9933 27.4064 18.6219ZM25.0299 18.5469C25.0299 18.622 25.0076 18.6954 24.9659 18.7578C24.9242 18.8202 24.8649 18.8689 24.7955 18.8977C24.7261 18.9264 24.6498 18.9339 24.5761 18.9193C24.5025 18.9046 24.4348 18.8684 24.3817 18.8153C24.3286 18.7622 24.2924 18.6946 24.2778 18.6209C24.2631 18.5473 24.2707 18.4709 24.2994 18.4016C24.3281 18.3322 24.3768 18.2729 24.4392 18.2312C24.5017 18.1894 24.5751 18.1672 24.6502 18.1672C24.7001 18.1672 24.7494 18.177 24.7955 18.1961C24.8416 18.2152 24.8834 18.2431 24.9187 18.2784C24.9539 18.3136 24.9819 18.3555 25.001 18.4016C25.0201 18.4476 25.0299 18.497 25.0299 18.5469ZM25.0299 16.2031C25.0299 16.2782 25.0076 16.3516 24.9659 16.4141C24.9242 16.4765 24.8649 16.5252 24.7955 16.5539C24.7261 16.5826 24.6498 16.5902 24.5761 16.5755C24.5025 16.5609 24.4348 16.5247 24.3817 16.4716C24.3286 16.4185 24.2924 16.3508 24.2778 16.2772C24.2631 16.2035 24.2707 16.1272 24.2994 16.0578C24.3281 15.9884 24.3768 15.9291 24.4392 15.8874C24.5017 15.8457 24.5751 15.8234 24.6502 15.8234C24.7001 15.8234 24.7494 15.8333 24.7955 15.8523C24.8416 15.8714 24.8834 15.8994 24.9187 15.9346C24.9539 15.9699 24.9819 16.0118 25.001 16.0578C25.0201 16.1039 25.0299 16.1533 25.0299 16.2031ZM23.3799 17.375C23.3799 17.4501 23.3576 17.5235 23.3159 17.5859C23.2742 17.6484 23.2149 17.697 23.1455 17.7258C23.0761 17.7545 22.9998 17.762 22.9261 17.7474C22.8525 17.7327 22.7848 17.6966 22.7317 17.6435C22.6786 17.5904 22.6424 17.5227 22.6278 17.4491C22.6131 17.3754 22.6207 17.2991 22.6494 17.2297C22.6781 17.1603 22.7268 17.101 22.7892 17.0593C22.8517 17.0176 22.9251 16.9953 23.0002 16.9953C23.1009 16.9953 23.1975 17.0353 23.2687 17.1065C23.3399 17.1777 23.3799 17.2743 23.3799 17.375Z" fill="black"/>
</svg>
