<svg width="31" height="31" viewBox="0 0 31 31" fill="none" xmlns="http://www.w3.org/2000/svg">
<path d="M25.145 16.701L25.1 17.079C24.869 17.856 23.93 18.558 22.52 19.095L22.352 19.161C20.6 19.794 18.179 20.187 15.5 20.187C12.821 20.187 10.4 19.794 8.65098 19.158L8.48298 19.101C7.07298 18.564 6.13398 17.859 5.90598 17.082L5.85498 16.701C5.87 16.2962 6.03837 15.9122 6.32598 15.627C6.8034 15.8959 7.30574 16.1179 7.82598 16.29L8.01198 16.353C9.92298 16.989 12.575 17.382 15.512 17.382C18.449 17.382 21.083 17.001 23 16.362L23.186 16.296C23.7053 16.1215 24.2074 15.8996 24.686 15.633C24.9671 15.9191 25.1308 16.3001 25.145 16.701Z" stroke="black" stroke-linecap="round" stroke-linejoin="round"/>
<path d="M26.0602 13.9075L26.0002 14.2765C25.8442 14.7655 25.3792 15.2245 24.6742 15.6325C24.1956 15.8991 23.6935 16.121 23.1742 16.2955L22.9882 16.3615C21.0832 17.0005 18.4312 17.3875 15.5002 17.3875C12.5692 17.3875 9.91422 17.0005 8.00022 16.3585L7.81422 16.2955C7.29399 16.1234 6.79164 15.9014 6.31422 15.6325C5.60622 15.2275 5.14122 14.7655 4.98522 14.2765L4.92822 13.9075C4.92822 13.1005 5.75322 12.3625 7.13922 11.7715V11.8075C7.33722 12.5875 8.15322 13.2895 9.38022 13.8295L9.52722 13.8925C11.0452 14.5255 13.1512 14.9215 15.4822 14.9215C17.8132 14.9215 19.9162 14.5255 21.4372 13.8925L21.5812 13.8295C22.8082 13.2895 23.6242 12.5905 23.8252 11.8105V11.7745C25.2352 12.3625 26.0602 13.1005 26.0602 13.9075Z" stroke="black" stroke-linecap="round" stroke-linejoin="round"/>
<path d="M20.6511 8.69336C22.6221 9.32936 23.9001 10.3224 23.9001 11.4384L23.8581 11.7744V11.8104C23.6571 12.5904 22.8441 13.2894 21.6141 13.8294L21.4731 13.8954C19.9491 14.5254 17.8401 14.9214 15.5151 14.9214C13.1901 14.9214 11.0781 14.5254 9.5571 13.8924L9.4131 13.8294C8.1831 13.2894 7.3671 12.5874 7.1691 11.8074V11.7714L7.1001 11.4384C7.1001 10.3224 8.3691 9.33836 10.3401 8.69336M23.9001 18.4704L23.2161 24.5184C23.2161 26.8524 19.7601 28.7424 15.5001 28.7424C11.2401 28.7424 7.7811 26.8524 7.7811 24.5184L7.1001 18.4704L7.3011 18.5694C9.4011 19.5684 12.2871 20.1864 15.4911 20.1864C18.6951 20.1864 21.5901 19.5684 23.6781 18.5724L23.9001 18.4704Z" stroke="black" stroke-linecap="round" stroke-linejoin="round"/>
<path d="M15.5 28.7415V20.1855" stroke="black" stroke-linecap="round" stroke-linejoin="round"/>
<path d="M11.3418 28.0733V19.8203" stroke="black" stroke-linecap="round" stroke-linejoin="round"/>
<path d="M19.6548 28.0733V19.8203" stroke="black" stroke-linecap="round" stroke-linejoin="round"/>
<path d="M19.0548 7.95734C19.0548 8.06834 19.0548 8.17334 19.0398 8.28134C18.9585 9.16397 18.5504 9.98438 17.8955 10.5817C17.2406 11.179 16.3862 11.5101 15.4998 11.5101C14.6135 11.5101 13.7591 11.179 13.1042 10.5817C12.4493 9.98438 12.0412 9.16397 11.9598 8.28134C11.9598 8.17334 11.9448 8.06834 11.9448 7.95734C11.9448 7.0145 12.3194 6.11027 12.9861 5.44358C13.6528 4.77689 14.557 4.40234 15.4998 4.40234C16.4427 4.40234 17.3469 4.77689 18.0136 5.44358C18.6803 6.11027 19.0548 7.0145 19.0548 7.95734Z" stroke="black" stroke-linecap="round" stroke-linejoin="round"/>
<path d="M15.5 5.92981L16.661 2.25781" stroke="black" stroke-linecap="round" stroke-linejoin="round"/>
</svg>
