<svg width="31" height="31" viewBox="0 0 31 31" fill="none" xmlns="http://www.w3.org/2000/svg">
<path fill-rule="evenodd" clip-rule="evenodd" d="M20.0875 12.3742H6.75C6.25 12.3742 5.775 12.5742 5.425 12.9242C5.075 13.2742 4.875 13.7554 4.875 14.2492C4.87616 14.6367 4.99681 15.0145 5.2205 15.3311C5.44419 15.6476 5.76004 15.8874 6.125 16.0179V16.7867H4.94375C3.8875 16.7867 3 17.6867 3 18.8054C3.01875 19.9179 3.90625 20.8054 4.95625 20.7992H6.125V23.9117C6.125 26.1617 7.9375 27.9992 10.125 27.9992H20.875C23.0625 27.9992 24.875 26.1554 24.875 23.9117V20.7992H26.0688C27.1187 20.7929 28 19.8929 28 18.7804C28 18.7617 28 18.7992 28 18.7804C27.9813 17.6867 27.1063 16.7554 26.0688 16.7492H24.875V16.0179C25.2402 15.8878 25.5563 15.6481 25.7801 15.3315C26.0038 15.0149 26.1243 14.6369 26.125 14.2492C26.125 13.7554 25.925 13.2742 25.575 12.9242C25.225 12.5742 24.7437 12.3742 24.25 12.3742H23.4375L25.3375 8.09291C25.7313 7.21791 25.375 6.15541 24.5563 5.70541H24.55C24.3 5.56791 24.0187 5.49916 23.7312 5.49916C22.9875 5.49916 22.3125 5.98041 22.0563 6.71166L20.0875 12.3742ZM7.375 16.1242V23.9117C7.375 25.4679 8.6125 26.7492 10.125 26.7492H20.875C22.3875 26.7492 23.625 25.4617 23.625 23.9117V16.1242H7.375ZM8 21.1242V23.6179C8 24.2804 8.2625 24.9242 8.7375 25.3929C9.20803 25.8643 9.84647 26.1296 10.5125 26.1304H11.7563C12.1 26.1304 12.3813 25.8492 12.3813 25.5054C12.3813 25.1617 12.1 24.8804 11.7563 24.8804H10.5125C10.1813 24.8804 9.85625 24.7492 9.625 24.5117C9.3875 24.2742 9.25625 23.9554 9.25625 23.6242V21.1304C9.25625 20.7867 8.975 20.5054 8.63125 20.5054C8.2875 20.5054 8.00625 20.7867 8.00625 21.1304L8 21.1242ZM18 17.3742C18 17.0304 17.7188 16.7492 17.375 16.7492H13.625C13.2812 16.7492 13 17.0304 13 17.3742V19.2492C13 19.5929 13.2812 19.8742 13.625 19.8742H17.375C17.7188 19.8742 18 19.5929 18 19.2492V17.3742ZM24.875 17.9992H26.0625C26.4438 17.9992 26.7437 18.3804 26.75 18.7804C26.75 19.1867 26.45 19.5429 26.0625 19.5492H24.875V17.9992ZM6.125 19.5429H4.95C4.5625 19.5429 4.2625 19.1992 4.25 18.7992C4.25 18.3867 4.55625 18.0304 4.94375 18.0304H6.125V19.5429ZM16.75 17.9992V18.6242H14.25V17.9992H16.75ZM24.25 14.8742H6.75C6.58125 14.8742 6.425 14.8054 6.30625 14.6929C6.1875 14.5742 6.125 14.4179 6.125 14.2492C6.125 14.0804 6.19375 13.9242 6.30625 13.8054C6.36444 13.7472 6.43366 13.7012 6.50986 13.6701C6.58606 13.6389 6.6677 13.6233 6.75 13.6242H24.25C24.4188 13.6242 24.575 13.6929 24.6937 13.8054C24.8125 13.9242 24.875 14.0804 24.875 14.2492C24.875 14.4179 24.8062 14.5742 24.6937 14.6929C24.6356 14.7511 24.5663 14.7971 24.4901 14.8283C24.4139 14.8594 24.3323 14.875 24.25 14.8742ZM22.0687 12.3742L24.1938 7.58041C24.3188 7.29291 24.225 6.94916 23.9562 6.79916C23.887 6.7623 23.8097 6.74299 23.7312 6.74291C23.5062 6.74291 23.3125 6.89916 23.2312 7.11791L21.4062 12.3679H22.0687V12.3742ZM15.225 3.06166C15.225 3.06166 13.9375 3.71166 13.675 4.88666C13.5063 5.63666 13.7 6.66166 15.0938 7.84916C15.95 8.57416 16.2062 9.13041 16.1 9.58666C15.9562 10.2304 15.2188 10.5617 15.2188 10.5617C15.1448 10.5977 15.0786 10.6479 15.0241 10.7095C14.9696 10.7711 14.9278 10.8429 14.9011 10.9207C14.8744 10.9985 14.8633 11.0808 14.8685 11.1629C14.8737 11.245 14.895 11.3253 14.9312 11.3992C14.9672 11.4731 15.0175 11.5393 15.0791 11.5938C15.1407 11.6483 15.2125 11.6901 15.2903 11.7168C15.3681 11.7435 15.4504 11.7546 15.5325 11.7494C15.6146 11.7443 15.6949 11.7229 15.7688 11.6867C15.7688 11.6867 17.0562 11.0367 17.3188 9.86166C17.4875 9.11166 17.2937 8.08041 15.9 6.89916C15.0437 6.17416 14.7875 5.62416 14.8938 5.16166C15.0375 4.51791 15.7688 4.19291 15.7688 4.19291C15.8427 4.15691 15.9089 4.10666 15.9634 4.04505C16.0179 3.98343 16.0597 3.91166 16.0864 3.83386C16.1131 3.75605 16.1242 3.67373 16.119 3.59163C16.1138 3.50953 16.0925 3.42925 16.0562 3.35541C16.0203 3.28144 15.97 3.2153 15.9084 3.16079C15.8468 3.10629 15.775 3.06448 15.6972 3.03777C15.6194 3.01106 15.5371 2.99997 15.455 3.00514C15.3729 3.01032 15.2926 3.03165 15.2188 3.06791L15.225 3.06166ZM18.9812 4.33041C18.9812 4.33041 18.1438 4.81166 17.9688 5.68666C17.8625 6.23041 17.9688 6.96166 18.8438 7.81791C19.275 8.23666 19.4188 8.55541 19.3687 8.82416C19.3062 9.15541 18.975 9.33041 18.975 9.33041C18.8402 9.41636 18.7435 9.55067 18.7048 9.70573C18.666 9.86078 18.6881 10.0248 18.7665 10.1641C18.8449 10.3033 18.9738 10.4073 19.1265 10.4545C19.2792 10.5017 19.4441 10.4886 19.5875 10.4179C19.5875 10.4179 20.425 9.93666 20.5938 9.05541C20.7 8.51166 20.5938 7.78041 19.7188 6.92416C19.2938 6.50541 19.1437 6.18666 19.1938 5.92416C19.2563 5.59291 19.5875 5.41791 19.5875 5.41791C19.8875 5.24916 19.9937 4.86791 19.8312 4.56791C19.6625 4.26791 19.2812 4.16166 18.9812 4.32416V4.33041ZM11.3687 4.33666C11.3687 4.33666 10.5563 4.81166 10.3938 5.69291C10.2937 6.23041 10.4 6.96166 11.2375 7.81166C11.65 8.23666 11.7937 8.56166 11.7437 8.83041C11.6812 9.16166 11.3687 9.33666 11.3687 9.33666C11.0687 9.51166 10.9688 9.89291 11.1438 10.1929C11.3188 10.4929 11.7 10.5929 12 10.4179C12 10.4179 12.8125 9.93666 12.975 9.05541C13.075 8.51791 12.9688 7.78666 12.1313 6.93666C11.7188 6.51166 11.575 6.18666 11.625 5.92416C11.6875 5.59291 12 5.41791 12 5.41791C12.3 5.24291 12.4 4.86166 12.225 4.56166C12.1838 4.49044 12.1288 4.42809 12.0634 4.37819C11.998 4.32829 11.9233 4.29183 11.8437 4.27091C11.7641 4.25 11.6812 4.24504 11.5997 4.25632C11.5181 4.26761 11.4397 4.29491 11.3687 4.33666Z" fill="black"/>
</svg>
