<svg width="31" height="31" viewBox="0 0 31 31" fill="none" xmlns="http://www.w3.org/2000/svg">
<path d="M21.8056 12.5743L20.1137 7.57333C20.0907 7.505 20.0471 7.44544 19.9887 7.4027L11.9643 1.50599C11.8081 1.39046 11.5873 1.4248 11.473 1.58101L2.00044 14.4715C1.88542 14.6281 1.91907 14.8481 2.07562 14.963L13.5848 23.4207C13.6452 23.4653 13.7183 23.489 13.7928 23.489C13.8103 23.489 13.8282 23.4876 13.846 23.4849C13.938 23.4708 14.0208 23.4207 14.0761 23.3456L21.7558 12.8951C21.8238 12.8026 21.8423 12.683 21.8056 12.5743ZM13.7176 22.646L2.77531 14.6045L6.26796 9.85162C7.55296 10.4473 13.6308 13.0888 20.3334 13.0888C20.4707 13.0888 20.6093 13.0825 20.7472 13.0802L13.7176 22.646ZM6.69303 9.27317L11.8314 2.28069L19.483 7.9036L20.9955 12.3739C14.3834 12.5533 8.22366 9.96936 6.69303 9.27317ZM22.0713 13.5632C21.9343 13.5632 21.8097 13.6429 21.7524 13.7672C21.5069 14.2973 20.2836 16.9839 20.2836 17.8124C20.2836 18.798 21.0856 19.5998 22.0713 19.5998C23.057 19.5998 23.8586 18.798 23.8586 17.8124C23.8586 16.9839 22.6357 14.2974 22.3903 13.7672C22.3329 13.6429 22.2083 13.5632 22.0713 13.5632ZM22.0713 18.8967C21.4732 18.8967 20.9868 18.4102 20.9868 17.8124C20.9868 17.3856 21.5642 15.9298 22.0713 14.7722C22.5784 15.9296 23.1555 17.3854 23.1555 17.8124C23.1555 18.4102 22.669 18.8967 22.0713 18.8967ZM24.9545 21.5367C24.9545 22.4582 25.7043 23.2078 26.6258 23.2078C27.5473 23.2078 28.2967 22.4582 28.2967 21.5367C28.2967 20.6152 27.5473 19.8656 26.6258 19.8656C25.7043 19.8656 24.9545 20.6152 24.9545 21.5367ZM26.6258 20.5687C27.1593 20.5687 27.5936 21.003 27.5936 21.5367C27.5936 22.0704 27.1593 22.5047 26.6258 22.5047C26.0919 22.5047 25.6576 22.0704 25.6576 21.5367C25.6576 21.003 26.0919 20.5687 26.6258 20.5687ZM25.5711 10.2001C26.4926 10.2001 27.2421 9.45043 27.2421 8.52896C27.2421 7.60749 26.4926 6.85785 25.5711 6.85785C24.6496 6.85785 23.8998 7.60749 23.8998 8.52896C23.8998 9.45043 24.6496 10.2001 25.5711 10.2001ZM25.5711 7.56097C26.1046 7.56097 26.5389 7.99527 26.5389 8.52896C26.5389 9.06265 26.1046 9.49695 25.5711 9.49695C25.0373 9.49695 24.603 9.06265 24.603 8.52896C24.603 7.99527 25.0373 7.56097 25.5711 7.56097Z" fill="black"/>
<path d="M11.5039 6.15908C10.7788 6.15908 10.189 6.7489 10.189 7.47382C10.189 8.19874 10.7788 8.78857 11.5039 8.78857C12.2286 8.78857 12.8185 8.19874 12.8185 7.47382C12.8185 6.7489 12.2286 6.15908 11.5039 6.15908ZM11.5039 8.08545C11.1664 8.08545 10.8921 7.81113 10.8921 7.47382C10.8921 7.13651 11.1664 6.8622 11.5039 6.8622C11.841 6.8622 12.1153 7.13651 12.1153 7.47382C12.1153 7.81113 11.841 8.08545 11.5039 8.08545ZM21.0008 4.92621C21.9223 4.92621 22.6718 4.17657 22.6718 3.2551C22.6718 2.33363 21.9223 1.58398 21.0008 1.58398C20.0793 1.58398 19.3295 2.33363 19.3295 3.2551C19.3295 4.17657 20.0793 4.92621 21.0008 4.92621ZM21.0008 2.28711C21.5343 2.28711 21.9686 2.72141 21.9686 3.2551C21.9686 3.78879 21.5343 4.22309 21.0008 4.22309C20.467 4.22309 20.0327 3.78879 20.0327 3.2551C20.0327 2.72141 20.467 2.28711 21.0008 2.28711ZM16.1655 22.5909C16.1655 23.5124 16.9153 24.262 17.8368 24.262C18.7582 24.262 19.5077 23.5124 19.5077 22.5909C19.5077 21.6694 18.7582 20.9198 17.8368 20.9198C16.9153 20.9198 16.1655 21.6694 16.1655 22.5909ZM18.8046 22.5909C18.8046 23.1246 18.3703 23.5589 17.8368 23.5589C17.3029 23.5589 16.8686 23.1246 16.8686 22.5909C16.8686 22.0572 17.3029 21.6229 17.8368 21.6229C18.3703 21.6229 18.8046 22.0572 18.8046 22.5909Z" fill="black"/>
<path d="M26.2962 24.9011C25.9724 24.9011 25.6518 24.9695 25.3562 25.1004C25.0451 24.8582 24.6799 24.6927 24.2928 24.6182C24.2652 24.4741 24.2241 24.335 24.1727 24.2007C24.1723 24.1997 24.172 24.1987 24.1716 24.1977C24.1464 24.1319 24.1184 24.0678 24.0879 24.0048C24.0869 24.0027 24.0859 24.0005 24.0848 23.9984C23.8384 23.4934 23.4276 23.0845 22.9213 22.8404C22.9088 22.8343 22.8963 22.8281 22.8836 22.8222C22.834 22.7993 22.7837 22.7783 22.7324 22.7586C22.71 22.75 22.6874 22.7418 22.6648 22.7338C22.6195 22.7179 22.5739 22.7029 22.5274 22.6896C22.4957 22.6805 22.4634 22.6727 22.4312 22.6648C22.3908 22.655 22.3506 22.645 22.3095 22.6372C22.2658 22.6288 22.2214 22.623 22.177 22.6169C22.145 22.6126 22.1134 22.6069 22.081 22.6039C22.0023 22.5963 21.923 22.5918 21.8426 22.5918C21.759 22.5918 21.6764 22.5963 21.595 22.6043C21.5674 22.6071 21.5408 22.6125 21.5136 22.6161C21.4601 22.6232 21.4066 22.63 21.3542 22.6405C21.3224 22.6468 21.2916 22.6557 21.2603 22.6632C21.2137 22.6744 21.167 22.6852 21.1214 22.699C21.0886 22.7089 21.057 22.721 21.0248 22.7322C20.9822 22.7471 20.9395 22.7617 20.898 22.7787C20.8653 22.7921 20.8337 22.8074 20.8017 22.8222C20.7624 22.8403 20.7233 22.8583 20.6852 22.8784C20.6532 22.8952 20.6223 22.9135 20.5912 22.9316C20.5548 22.9528 20.5186 22.9742 20.4834 22.9972C20.4531 23.017 20.4237 23.0378 20.3943 23.0589C20.3604 23.0832 20.3269 23.1078 20.2942 23.1337C20.2657 23.1564 20.2381 23.1798 20.2106 23.2036C20.1794 23.2307 20.1488 23.2583 20.119 23.2869C20.0926 23.3122 20.0668 23.338 20.0415 23.3644C20.0131 23.3941 19.9856 23.4245 19.9586 23.4556C19.9346 23.4833 19.911 23.5112 19.8882 23.5399C19.8626 23.5722 19.8382 23.6053 19.8141 23.6389C19.7928 23.6687 19.7717 23.6984 19.7517 23.7291C19.7289 23.7641 19.7076 23.8 19.6865 23.8362C19.6683 23.8674 19.65 23.8985 19.6332 23.9305C19.6132 23.9685 19.5952 24.0075 19.5771 24.0467C19.5623 24.0788 19.5469 24.1106 19.5334 24.1435C19.5165 24.1847 19.5021 24.227 19.4874 24.2692C19.476 24.3017 19.4638 24.3338 19.4537 24.367C19.44 24.4124 19.4292 24.459 19.4181 24.5054C19.4105 24.5368 19.4017 24.5676 19.3953 24.5994C19.3845 24.6535 19.3774 24.7087 19.3701 24.7639C19.3668 24.7893 19.3618 24.814 19.3592 24.8396C19.3589 24.8425 19.3583 24.8453 19.358 24.8483C19.0088 24.667 18.6192 24.5712 18.2137 24.5712C16.8373 24.5712 15.7178 25.6908 15.7178 27.067C15.7178 28.4432 16.8373 29.5629 18.2137 29.5629C18.6841 29.5629 19.1328 29.4343 19.5262 29.1889C19.8644 29.4318 20.2675 29.5629 20.688 29.5629C21.247 29.5629 21.7757 29.3238 22.1499 28.9183C22.6048 29.3322 23.1939 29.5629 23.8219 29.5629C24.2685 29.5629 24.6994 29.445 25.0815 29.2198C25.4471 29.445 25.8622 29.5629 26.2962 29.5629C27.5812 29.5629 28.627 28.5172 28.627 27.2319C28.627 25.9467 27.5812 24.9011 26.2962 24.9011ZM26.2962 28.8598C25.934 28.8598 25.59 28.7417 25.3016 28.5182C25.2384 28.4691 25.1625 28.4446 25.0863 28.4446C25.0135 28.4446 24.9404 28.4672 24.8786 28.5125C24.5686 28.7396 24.2033 28.8598 23.8219 28.8598C23.2605 28.8598 22.7418 28.6023 22.3988 28.1534C22.3267 28.0593 22.21 28.0066 22.095 28.0163C21.9769 28.0245 21.8711 28.0913 21.8131 28.1943C21.5817 28.6047 21.1505 28.8598 20.688 28.8598C20.3519 28.8598 20.0326 28.7299 19.7882 28.494C19.6615 28.3711 19.4634 28.3622 19.3257 28.4715C19.0054 28.7256 18.6209 28.8598 18.2137 28.8598C17.2253 28.8598 16.4209 28.0556 16.4209 27.067C16.4209 26.0786 17.2253 25.2743 18.2137 25.2743C18.6774 25.2743 19.1088 25.4543 19.4435 25.7733C19.5626 26.1933 19.7895 26.5766 20.1143 26.8885C20.1823 26.954 20.2702 26.9865 20.3578 26.9865C20.4501 26.9865 20.5425 26.9503 20.6115 26.8783C20.7457 26.7383 20.7412 26.5158 20.6012 26.3814C20.3441 26.1346 20.1739 25.825 20.0975 25.4868C20.0899 25.4538 20.0856 25.4214 20.0798 25.3886C20.0632 25.2898 20.0498 25.1901 20.0498 25.0877C20.0498 24.0991 20.8542 23.2949 21.8426 23.2949C21.9622 23.2949 22.0787 23.3078 22.1919 23.3302C22.2506 23.342 22.3056 23.3633 22.3622 23.3808C22.4137 23.3965 22.4667 23.4085 22.5161 23.4287C22.5832 23.4562 22.6454 23.4924 22.7082 23.5276C22.7425 23.5467 22.7787 23.5625 22.8115 23.5837C22.875 23.6249 22.9328 23.6736 22.9906 23.7223C23.0177 23.7452 23.0469 23.7656 23.0726 23.79C23.1269 23.8415 23.1748 23.8992 23.2223 23.9571C23.2457 23.9855 23.271 24.0123 23.2926 24.0422C23.3351 24.101 23.3709 24.1646 23.4062 24.2285C23.4255 24.2634 23.4464 24.2973 23.4633 24.3335C23.4934 24.3978 23.5165 24.4656 23.5389 24.5337C23.5522 24.5745 23.5667 24.6147 23.5771 24.6567C23.5942 24.7254 23.6044 24.7967 23.6132 24.8683C23.6223 24.9411 23.6354 25.0126 23.6354 25.0877C23.6354 25.2278 23.6193 25.3669 23.5874 25.5011C23.5424 25.6901 23.6591 25.8796 23.848 25.9244C24.0375 25.9694 24.2263 25.8532 24.2713 25.6638C24.2956 25.5617 24.312 25.4576 24.3231 25.3527C24.5977 25.433 24.853 25.5742 25.0616 25.7742C25.1749 25.883 25.3465 25.9026 25.4815 25.8245C25.7297 25.6805 26.0112 25.6043 26.2962 25.6043C27.1936 25.6043 27.9239 26.3345 27.9239 27.2319C27.9239 28.1296 27.1936 28.8598 26.2962 28.8598Z" fill="black"/>
<path d="M21.5478 24.0785C21.0253 24.3269 20.6878 24.8611 20.6878 25.4396C20.6878 25.6337 20.8451 25.7911 21.0394 25.7911C21.2337 25.7911 21.391 25.6337 21.391 25.4396C21.391 25.1311 21.5712 24.8462 21.85 24.7136C22.0251 24.6302 22.0999 24.4204 22.0165 24.2452C21.9327 24.0699 21.724 23.9951 21.5478 24.0785ZM9.01115 23.4004C9.20547 23.4004 9.36271 23.243 9.36271 23.0489V22.3281C9.36271 22.1339 9.20547 21.9765 9.01115 21.9765C8.81683 21.9765 8.65959 22.1339 8.65959 22.3281V23.0489C8.65959 23.243 8.81683 23.4004 9.01115 23.4004ZM9.01115 24.1036C8.81683 24.1036 8.65959 24.261 8.65959 24.4551V25.1757C8.65959 25.3699 8.81683 25.5273 9.01115 25.5273C9.20547 25.5273 9.36271 25.3699 9.36271 25.1757V24.4551C9.36271 24.261 9.20547 24.1036 9.01115 24.1036ZM10.4349 23.4004H9.71427C9.51995 23.4004 9.36271 23.5578 9.36271 23.752C9.36271 23.9461 9.51995 24.1036 9.71427 24.1036H10.4349C10.6292 24.1036 10.7865 23.9461 10.7865 23.752C10.7865 23.5578 10.6292 23.4004 10.4349 23.4004ZM8.30803 23.4004H7.5874C7.39308 23.4004 7.23584 23.5578 7.23584 23.752C7.23584 23.9461 7.39308 24.1036 7.5874 24.1036H8.30803C8.50235 24.1036 8.65959 23.9461 8.65959 23.752C8.65959 23.5578 8.50235 23.4004 8.30803 23.4004ZM26.9407 13.1875V13.9083C26.9407 14.1024 27.098 14.2599 27.2923 14.2599C27.4866 14.2599 27.6439 14.1024 27.6439 13.9083V13.1875C27.6439 12.9934 27.4866 12.8359 27.2923 12.8359C27.098 12.8359 26.9407 12.9934 26.9407 13.1875ZM27.2923 14.963C27.098 14.963 26.9407 15.1204 26.9407 15.3145V16.0352C26.9407 16.2293 27.098 16.3867 27.2923 16.3867C27.4866 16.3867 27.6439 16.2293 27.6439 16.0352V15.3145C27.6439 15.1204 27.4866 14.963 27.2923 14.963ZM28.716 14.2599H27.9954C27.8011 14.2599 27.6439 14.4173 27.6439 14.6114C27.6439 14.8056 27.8011 14.963 27.9954 14.963H28.716C28.9104 14.963 29.0676 14.8056 29.0676 14.6114C29.0676 14.4173 28.9104 14.2599 28.716 14.2599ZM26.5892 14.963C26.7835 14.963 26.9407 14.8056 26.9407 14.6114C26.9407 14.4173 26.7835 14.2599 26.5892 14.2599H25.8685C25.6742 14.2599 25.517 14.4173 25.517 14.6114C25.517 14.8056 25.6742 14.963 25.8685 14.963H26.5892Z" fill="black"/>
</svg>
