<svg width="31" height="31" viewBox="0 0 31 31" fill="none" xmlns="http://www.w3.org/2000/svg">
<g clip-path="url(#clip0_45_182)">
<path d="M10.6016 27.8191C5.03281 27.8191 0.5 23.2863 0.5 17.7129C0.5 12.252 4.94375 7.72383 10.4047 7.61133H10.6062C16.175 7.61133 20.7078 12.1441 20.7078 17.7129V17.7832C20.7078 18.0363 20.5063 18.2379 20.2531 18.2379C20 18.2379 19.7984 18.0363 19.7984 17.7832V17.7129C19.7984 12.6457 15.6734 8.5207 10.6062 8.5207H10.4141C5.45469 8.62383 1.40938 12.7441 1.40938 17.7129C1.40938 22.7848 5.53437 26.9098 10.6062 26.9098C12.0266 26.9098 13.3906 26.5957 14.6562 25.9723C14.7644 25.9188 14.8894 25.9105 15.0037 25.9492C15.1179 25.9879 15.2122 26.0704 15.2656 26.1785C15.3191 26.2867 15.3274 26.4116 15.2887 26.5259C15.25 26.6402 15.1675 26.7344 15.0594 26.7879C13.6625 27.4723 12.1672 27.8191 10.6016 27.8191Z" fill="black"/>
<path d="M10.6014 10.962C10.3999 10.962 10.217 10.8308 10.1655 10.6292C9.05923 6.5839 12.0124 2.99327 12.1389 2.84327C12.2983 2.65109 12.5842 2.62296 12.7764 2.78702C12.9686 2.9464 12.9967 3.23234 12.8327 3.42921C12.8045 3.46202 10.0577 6.81359 11.0327 10.3948C11.0486 10.4524 11.053 10.5125 11.0456 10.5718C11.0382 10.6311 11.0192 10.6883 10.9895 10.7402C10.9599 10.792 10.9203 10.8375 10.873 10.874C10.8257 10.9104 10.7716 10.9372 10.7139 10.9526C10.6811 10.9573 10.6436 10.962 10.6014 10.962Z" fill="black"/>
<path d="M10.6297 10.9629C9.88906 10.9629 9.34531 10.7707 9.30781 10.7567C9.19499 10.7152 9.10312 10.6309 9.05219 10.522C9.00127 10.4132 8.99543 10.2886 9.03594 10.1754C9.12031 9.94104 9.38281 9.81917 9.61719 9.90354C9.62656 9.90823 10.5922 10.2457 11.5906 9.89886C11.8297 9.81917 12.0875 9.94573 12.1672 10.1801C12.2469 10.4192 12.1203 10.677 11.8859 10.7567C11.4453 10.9114 11.0094 10.9629 10.6297 10.9629ZM20.1125 28.3207C19.8406 28.3207 19.5734 28.3114 19.3016 28.2879C17.6422 28.1614 16.0203 27.6317 14.6187 26.7598C13.7094 26.1973 12.8984 25.4989 12.2 24.6832C12.1217 24.5916 12.0828 24.4727 12.0915 24.3525C12.1003 24.2323 12.1561 24.1204 12.2469 24.041L19.7984 17.5629L27.3547 11.0942C27.4484 11.0145 27.5609 10.977 27.6875 10.9864C27.8094 10.9957 27.9172 11.052 27.9969 11.1457C29.8062 13.2598 30.6828 15.9457 30.4719 18.7114C30.2609 21.4817 28.9812 24.0035 26.8719 25.8129C24.9641 27.4442 22.5922 28.3207 20.1125 28.3207ZM13.1937 24.4348C13.7562 25.0348 14.3984 25.5551 15.0969 25.991C16.3953 26.7973 17.8344 27.266 19.3719 27.3832C21.8984 27.5754 24.3547 26.7739 26.2766 25.1239C28.2031 23.4739 29.3703 21.1723 29.5625 18.641C29.7453 16.2645 29.0469 13.9535 27.5891 12.0879L21.2234 17.5489L27.8937 18.0598C28.1375 18.0785 28.325 18.2848 28.3109 18.5332L28.3016 18.6785C27.9641 23.0895 24.0828 26.3567 19.4703 26.1317C19.4094 26.1292 19.3496 26.1142 19.2948 26.0876C19.24 26.061 19.1912 26.0233 19.1516 25.977C19.1115 25.9309 19.0809 25.8774 19.0616 25.8195C19.0423 25.7616 19.0346 25.7004 19.0391 25.6395L19.55 18.9739L13.1937 24.4348ZM20.5156 18.402L19.9906 25.2317C23.7875 25.2035 26.9281 22.5317 27.3687 18.9317L20.5156 18.402Z" fill="black"/>
<path d="M19.503 26.132H19.4796L19.2311 26.1179C18.3405 26.0523 17.4686 25.8508 16.6436 25.5226C15.5046 25.0726 14.464 24.3695 13.6296 23.4976C13.4561 23.3148 13.4608 23.0289 13.6436 22.8554C13.8265 22.682 14.1124 22.6867 14.2858 22.8695C15.0311 23.6476 15.964 24.2758 16.9811 24.6789C17.7171 24.9742 18.4999 25.1523 19.3015 25.2133L19.5218 25.2273C19.6385 25.2345 19.7479 25.2865 19.8271 25.3725C19.9063 25.4585 19.9492 25.5718 19.9468 25.6887C19.9444 25.8056 19.8968 25.917 19.8141 25.9996C19.7314 26.0823 19.6199 26.1297 19.503 26.132ZM27.8608 18.9695H27.8327C27.7122 18.9619 27.5996 18.9068 27.5196 18.8163C27.4396 18.7258 27.3988 18.6073 27.4061 18.4867C27.5186 16.5789 26.8436 14.7367 25.5124 13.2976C25.431 13.2091 25.3878 13.0919 25.3922 12.9717C25.3966 12.8515 25.4482 12.7379 25.5358 12.6554C25.7186 12.482 26.0046 12.4961 26.178 12.6789C27.6827 14.3054 28.4421 16.3867 28.3155 18.5429C28.3015 18.782 28.0999 18.9695 27.8608 18.9695ZM25.1515 24.2664C25.0249 24.2664 24.8983 24.2148 24.8046 24.107L19.7515 18.2101C19.6732 18.1185 19.6342 17.9996 19.643 17.8794C19.6518 17.7592 19.7076 17.6473 19.7983 17.5679C19.89 17.4897 20.0088 17.4507 20.1291 17.4595C20.2493 17.4682 20.3612 17.5241 20.4405 17.6148L25.4983 23.5164C25.6624 23.7086 25.639 23.9945 25.4515 24.1586C25.3677 24.2295 25.2612 24.2678 25.1515 24.2664Z" fill="black"/>
</g>
<defs>
<clipPath id="clip0_45_182">
<rect width="30" height="30" fill="white" transform="translate(0.5 0.5)"/>
</clipPath>
</defs>
</svg>
