<svg width="31" height="31" viewBox="0 0 31 31" fill="none" xmlns="http://www.w3.org/2000/svg">
<g clip-path="url(#clip0_45_259)">
<path d="M26.0372 0.937765C25.8719 0.840656 25.6748 0.812985 25.4892 0.860806C25.3035 0.908627 25.1443 1.02805 25.0465 1.19293L19.8654 9.97007C19.8389 10.0156 19.8174 10.0639 19.8015 10.1141C19.2218 10.3291 18.6807 10.6364 18.1993 11.0244C16.6294 8.35733 13.753 6.67799 10.6106 6.67799C5.76179 6.67799 1.81762 10.6166 1.8041 15.4621H0.661133L0.763331 16.276C1.35806 21.0068 4.27564 25.1389 8.47069 27.3147V30.108H19.2951C20.6672 30.108 21.7834 28.9907 21.7834 27.6183V27.315C25.9798 25.1382 28.8961 21.0061 29.4921 16.276L29.5943 15.4614H27.5303C27.5207 12.9882 25.9346 10.8856 23.7285 10.0917L30.1927 3.87117C30.4801 3.59458 30.4894 3.13634 30.2118 2.84886C30.146 2.78042 30.0674 2.72561 29.9804 2.68756C29.8935 2.6495 29.7999 2.62896 29.705 2.62709C29.6101 2.62522 29.5157 2.64207 29.4273 2.67667C29.3389 2.71127 29.2582 2.76295 29.1898 2.82875L21.9892 9.75908C21.9245 9.75645 21.8603 9.74919 21.7946 9.74919C21.7531 9.74919 21.7132 9.75513 21.6723 9.75579L26.2923 1.92842C26.3406 1.84662 26.3724 1.75611 26.3857 1.66205C26.399 1.56799 26.3937 1.47223 26.37 1.38024C26.3463 1.28825 26.3047 1.20182 26.2476 1.1259C26.1905 1.04998 26.119 0.986051 26.0372 0.937765ZM10.6103 8.12491C13.3785 8.12491 15.9018 9.68326 17.1568 12.1248C16.6993 12.7541 16.3749 13.4701 16.2034 14.2291C15.6282 11.6682 13.3409 9.74853 10.6103 9.74853C7.4563 9.74853 4.89047 12.3094 4.87696 15.4617H3.25102C3.26421 11.4144 6.55959 8.12491 10.6103 8.12491ZM10.6103 12.823C9.14981 12.823 7.96135 14.0049 7.94784 15.4617H6.32421C6.33773 13.1072 8.2541 11.1958 10.6103 11.1958C12.9671 11.1958 14.8854 13.1072 14.8976 15.4617H13.272C13.2592 14.0049 12.0707 12.823 10.6103 12.823ZM11.8241 15.4621H9.39641C9.40287 15.144 9.5336 14.8412 9.7606 14.6184C9.98761 14.3956 10.2928 14.2705 10.6109 14.27C10.9288 14.2706 11.2339 14.3957 11.4606 14.6186C11.6874 14.8414 11.8179 15.1442 11.8241 15.4621ZM27.9272 16.909C27.1231 21.1136 24.2718 24.6981 20.32 26.415H18.0041V27.8623H20.3045C20.2504 28.0893 20.1214 28.2916 19.9384 28.4365C19.7553 28.5814 19.5289 28.6605 19.2954 28.6611H9.91795V27.8623H12.6308V26.415H9.93542C5.98366 24.6991 3.13201 21.1136 2.32729 16.909H27.9272ZM20.5811 15.4621C20.5875 15.1442 20.7181 14.8414 20.9449 14.6186C21.1717 14.3958 21.4767 14.2707 21.7946 14.27C22.1129 14.2702 22.4183 14.3952 22.6455 14.6181C22.8726 14.8409 23.0034 15.1439 23.0098 15.4621H20.5811ZM21.7946 11.1961C24.1525 11.1961 26.0715 13.1075 26.084 15.4621H24.4574C24.4442 14.0052 23.2554 12.8234 21.7946 12.8234C20.3342 12.8234 19.1467 14.0052 19.1335 15.4621H17.5086C17.5218 13.1075 19.4382 11.1961 21.7946 11.1961Z" fill="black"/>
<path d="M21.4864 23.9083C21.6021 23.9083 21.7191 23.8809 21.8269 23.8225C22.7105 23.3496 23.4859 22.6978 24.1037 21.9086C24.7215 21.1195 25.1682 20.2104 25.4154 19.2391C25.4391 19.1469 25.4443 19.0509 25.4308 18.9567C25.4173 18.8625 25.3853 18.7718 25.3367 18.6899C25.2881 18.6081 25.2238 18.5366 25.1475 18.4797C25.0713 18.4227 24.9845 18.3814 24.8922 18.358C24.7999 18.3347 24.7039 18.3298 24.6097 18.3436C24.5155 18.3575 24.425 18.3898 24.3433 18.4387C24.2616 18.4876 24.1904 18.5521 24.1337 18.6286C24.077 18.7051 24.036 18.792 24.013 18.8844C23.8157 19.6607 23.4588 20.3873 22.9652 21.018C22.4715 21.6487 21.8519 22.1697 21.1458 22.5477C21.0034 22.6235 20.8905 22.7447 20.825 22.8921C20.7595 23.0395 20.7452 23.2046 20.7843 23.3611C20.8235 23.5176 20.9139 23.6564 21.0411 23.7556C21.1683 23.8547 21.3251 23.9085 21.4864 23.9083Z" fill="black"/>
<path d="M19.7352 25.0496C20.209 25.0496 20.593 24.6655 20.593 24.1918C20.593 23.718 20.209 23.334 19.7352 23.334C19.2615 23.334 18.8774 23.718 18.8774 24.1918C18.8774 24.6655 19.2615 25.0496 19.7352 25.0496Z" fill="black"/>
</g>
<defs>
<clipPath id="clip0_45_259">
<rect width="30" height="30" fill="white" transform="translate(0.5 0.5)"/>
</clipPath>
</defs>
</svg>
