<svg width="249" height="43" viewBox="0 0 249 43" fill="none" xmlns="http://www.w3.org/2000/svg">
<rect width="248.497" height="42" transform="translate(0.251709 0.5)" fill="white"/>
<path fill-rule="evenodd" clip-rule="evenodd" d="M2.61268 5.0572C-0.443355 5.58758 -0.396361 9.46082 1.96945 10.3392C3.68855 10.9776 4.05453 10.3355 5.27705 9.47379C6.4118 8.67401 8.19026 9.14593 9.54187 9.05952C11.0209 8.96492 12.3069 8.66308 12.7558 10.4277C13.0813 11.7074 13.4102 12.7925 13.8133 14.0473C14.5729 16.4117 15.314 18.7958 16.0449 21.1696C16.7541 23.4726 17.6614 25.9532 18.2553 28.2561C18.6773 29.8923 18.9488 30.4124 20.7761 30.417C22.251 30.4206 23.7611 30.3724 25.2483 30.369C31.3532 30.3547 37.5154 30.3107 43.6153 30.3641C44.6979 30.3736 46.9838 30.7761 47.5617 29.644C48.4093 27.9836 46.1544 27.7424 45.1234 27.7836C42.0541 27.9062 38.8366 27.8146 35.7506 27.8146C32.6542 27.8146 29.5442 27.7859 26.4495 27.8189C25.3213 27.8308 22.7062 27.9652 21.7654 27.826C20.2221 27.5974 20.3375 26.1574 19.9666 24.9478C18.5242 20.2445 17.0142 15.4503 15.4923 10.7714C14.0503 6.3386 15.2346 6.55506 10.4119 6.49775C9.38347 6.48559 6.63352 6.64378 5.85989 6.38272C4.61244 5.96169 4.55479 4.72025 2.61261 5.05733L2.61268 5.0572Z" fill="#009444"/>
<path fill-rule="evenodd" clip-rule="evenodd" d="M39.401 34.6584C39.7548 39.445 46.7901 38.8907 46.5336 34.2613C46.2683 29.4731 39.0617 30.0695 39.401 34.6584Z" fill="#FF470C"/>
<path fill-rule="evenodd" clip-rule="evenodd" d="M27.8796 34.6623C28.3113 30.2513 21.3062 29.3088 20.7588 34.2174C20.2879 38.4409 27.373 39.8398 27.8796 34.6623Z" fill="#FF470C"/>
<path fill-rule="evenodd" clip-rule="evenodd" d="M28.2079 22.9057L28.2166 22.924C28.3201 23.3544 31.0828 22.2309 31.4204 22.0349C34.3361 20.3425 34.875 16.0474 31.7837 13.7604C29.4461 12.0311 24.3999 11.1009 24.9297 7.90576C25.1968 6.29472 26.5883 6.54676 27.2009 5.91747C26.5058 5.72054 24.6376 6.40954 24.0087 6.8085C23.0377 7.42448 22.4595 7.99585 22.0227 9.0819C21.0835 11.4173 22.2547 13.5581 24.2661 14.766C26.1636 15.9054 28.0263 16.2374 29.735 17.7804C30.5701 18.5345 30.8726 19.9047 30.5173 20.9553C30.0333 22.3862 29.2325 22.2723 28.2079 22.9057H28.2079Z" fill="#FF470C"/>
<path fill-rule="evenodd" clip-rule="evenodd" d="M27.9116 9.46952C28.3656 9.87628 29.9487 10.4662 30.5208 10.7677C31.0177 11.0295 30.9989 11.1248 31.1579 10.5115C31.5001 9.19118 31.8592 7.92699 32.8498 6.92332C33.8515 5.90851 35.5422 5.64588 36.7659 6.38802C39.9961 8.347 39.7762 15.8498 38.897 18.9547C38.5532 20.1689 37.9506 21.4587 36.8599 22.1742C36.6711 22.2981 35.0744 22.9171 36.0944 22.8704C36.7732 22.8393 37.6357 22.5872 38.2774 22.3479C43.839 20.2748 45.733 13.5232 41.9928 8.87028C39.2991 5.51931 34.3383 4.69965 30.6045 6.89579C29.9472 7.28247 28.0772 8.76516 27.9117 9.46959L27.9116 9.46952Z" fill="#009444"/>
<path fill-rule="evenodd" clip-rule="evenodd" d="M43.3226 23.0633C43.3605 22.4423 42.9817 22.7951 42.8209 23.139C42.6926 23.4135 42.4059 23.6574 42.1222 23.7637C41.581 23.9668 40.3702 24.0208 39.7686 24.0502C38.2073 24.1267 36.2908 24.0464 34.7403 23.831C32.4714 23.5157 29.8741 23.9374 27.6628 24.5133C26.685 24.7679 25.9224 25.0835 27.5874 24.8824C30.7534 24.5001 33.9879 24.7684 37.0232 25.737C38.4942 26.2063 39.7799 26.8868 41.3477 26.3686C42.5713 25.9643 43.2506 24.2376 43.3225 23.0634L43.3226 23.0633Z" fill="#009444"/>
<path fill-rule="evenodd" clip-rule="evenodd" d="M26.9127 22.813C26.7887 22.6643 24.964 22.6494 25.677 21.3992C26.1479 20.5737 26.6094 20.298 26.5103 19.2138C26.3537 17.4994 24.4246 16.4286 22.9036 17.3229C20.8605 18.5241 21.3819 21.4791 24.388 22.532C24.7524 22.6596 26.7203 23.1865 26.9127 22.813H26.9127Z" fill="#FF470C"/>
<path d="M69.6683 32.724C68.111 32.724 66.703 32.4573 65.4443 31.924C64.207 31.3907 63.2256 30.6227 62.5003 29.62C61.775 28.6173 61.4016 27.4333 61.3803 26.068H66.1803C66.2443 26.9853 66.5643 27.7107 67.1403 28.244C67.7376 28.7773 68.5483 29.044 69.5723 29.044C70.6176 29.044 71.439 28.7987 72.0363 28.308C72.6336 27.796 72.9323 27.1347 72.9323 26.324C72.9323 25.6627 72.7296 25.1187 72.3243 24.692C71.919 24.2653 71.407 23.9347 70.7883 23.7C70.191 23.444 69.359 23.1667 68.2923 22.868C66.8416 22.4413 65.6576 22.0253 64.7403 21.62C63.8443 21.1933 63.0656 20.564 62.4043 19.732C61.7643 18.8787 61.4443 17.748 61.4443 16.34C61.4443 15.0173 61.775 13.8653 62.4363 12.884C63.0976 11.9027 64.0256 11.156 65.2203 10.644C66.415 10.1107 67.7803 9.844 69.3163 9.844C71.6203 9.844 73.487 10.4093 74.9163 11.54C76.367 12.6493 77.167 14.2067 77.3163 16.212H72.3883C72.3456 15.444 72.015 14.8147 71.3963 14.324C70.799 13.812 69.999 13.556 68.9963 13.556C68.1216 13.556 67.4176 13.78 66.8843 14.228C66.3723 14.676 66.1163 15.3267 66.1163 16.18C66.1163 16.7773 66.3083 17.2787 66.6923 17.684C67.0976 18.068 67.5883 18.388 68.1643 18.644C68.7616 18.8787 69.5936 19.156 70.6603 19.476C72.111 19.9027 73.295 20.3293 74.2123 20.756C75.1296 21.1827 75.919 21.8227 76.5803 22.676C77.2416 23.5293 77.5723 24.6493 77.5723 26.036C77.5723 27.2307 77.263 28.34 76.6443 29.364C76.0256 30.388 75.119 31.2093 73.9243 31.828C72.7296 32.4253 71.311 32.724 69.6683 32.724ZM98.1923 14.772V32.5H93.6803V30.26C93.1043 31.028 92.347 31.636 91.4083 32.084C90.491 32.5107 89.4883 32.724 88.4003 32.724C87.0136 32.724 85.787 32.436 84.7203 31.86C83.6536 31.2627 82.811 30.3987 82.1923 29.268C81.595 28.116 81.2963 26.7507 81.2963 25.172V14.772H85.7763V24.532C85.7763 25.94 86.1283 27.028 86.8323 27.796C87.5363 28.5427 88.4963 28.916 89.7123 28.916C90.9496 28.916 91.9203 28.5427 92.6243 27.796C93.3283 27.028 93.6803 25.94 93.6803 24.532V14.772H98.1923ZM107.093 17.332C107.669 16.5213 108.458 15.8493 109.461 15.316C110.485 14.7613 111.647 14.484 112.949 14.484C114.463 14.484 115.829 14.8573 117.045 15.604C118.282 16.3507 119.253 17.4173 119.957 18.804C120.682 20.1693 121.045 21.7587 121.045 23.572C121.045 25.3853 120.682 26.996 119.957 28.404C119.253 29.7907 118.282 30.868 117.045 31.636C115.829 32.404 114.463 32.788 112.949 32.788C111.647 32.788 110.495 32.5213 109.493 31.988C108.511 31.4547 107.711 30.7827 107.093 29.972V40.948H102.613V14.772H107.093V17.332ZM116.469 23.572C116.469 22.5053 116.245 21.588 115.797 20.82C115.37 20.0307 114.794 19.4333 114.069 19.028C113.365 18.6227 112.597 18.42 111.765 18.42C110.954 18.42 110.186 18.6333 109.461 19.06C108.757 19.4653 108.181 20.0627 107.733 20.852C107.306 21.6413 107.093 22.5693 107.093 23.636C107.093 24.7027 107.306 25.6307 107.733 26.42C108.181 27.2093 108.757 27.8173 109.461 28.244C110.186 28.6493 110.954 28.852 111.765 28.852C112.597 28.852 113.365 28.6387 114.069 28.212C114.794 27.7853 115.37 27.1773 115.797 26.388C116.245 25.5987 116.469 24.66 116.469 23.572ZM140.78 23.252C140.78 23.892 140.737 24.468 140.652 24.98H127.692C127.799 26.26 128.247 27.2627 129.036 27.988C129.825 28.7133 130.796 29.076 131.948 29.076C133.612 29.076 134.796 28.3613 135.5 26.932H140.332C139.82 28.6387 138.839 30.0467 137.388 31.156C135.937 32.244 134.156 32.788 132.044 32.788C130.337 32.788 128.801 32.4147 127.436 31.668C126.092 30.9 125.036 29.8227 124.268 28.436C123.521 27.0493 123.148 25.4493 123.148 23.636C123.148 21.8013 123.521 20.1907 124.268 18.804C125.015 17.4173 126.06 16.3507 127.404 15.604C128.748 14.8573 130.295 14.484 132.044 14.484C133.729 14.484 135.233 14.8467 136.556 15.572C137.9 16.2973 138.935 17.332 139.66 18.676C140.407 19.9987 140.78 21.524 140.78 23.252ZM136.14 21.972C136.119 20.82 135.703 19.9027 134.892 19.22C134.081 18.516 133.089 18.164 131.916 18.164C130.807 18.164 129.868 18.5053 129.1 19.188C128.353 19.8493 127.895 20.7773 127.724 21.972H136.14ZM148.53 17.524C149.106 16.5853 149.853 15.8493 150.77 15.316C151.709 14.7827 152.775 14.516 153.97 14.516V19.22H152.786C151.378 19.22 150.311 19.5507 149.586 20.212C148.882 20.8733 148.53 22.0253 148.53 23.668V32.5H144.05V14.772H148.53V17.524ZM173.628 36.436L170.236 32.372C169.297 32.6067 168.337 32.724 167.356 32.724C165.265 32.724 163.345 32.2333 161.596 31.252C159.846 30.2707 158.46 28.916 157.436 27.188C156.412 25.4387 155.9 23.4653 155.9 21.268C155.9 19.092 156.412 17.14 157.436 15.412C158.46 13.6627 159.846 12.2973 161.596 11.316C163.345 10.3347 165.265 9.844 167.356 9.844C169.468 9.844 171.388 10.3347 173.116 11.316C174.865 12.2973 176.241 13.6627 177.244 15.412C178.268 17.14 178.78 19.092 178.78 21.268C178.78 23.252 178.353 25.0653 177.5 26.708C176.668 28.3293 175.526 29.652 174.076 30.676L179.196 36.436H173.628ZM160.508 21.268C160.508 22.7613 160.796 24.0733 161.372 25.204C161.948 26.3347 162.748 27.2093 163.772 27.828C164.817 28.4253 166.012 28.724 167.356 28.724C168.7 28.724 169.884 28.4253 170.908 27.828C171.932 27.2093 172.732 26.3347 173.308 25.204C173.884 24.0733 174.172 22.7613 174.172 21.268C174.172 19.7747 173.884 18.4733 173.308 17.364C172.732 16.2333 171.932 15.3693 170.908 14.772C169.884 14.1747 168.7 13.876 167.356 13.876C166.012 13.876 164.817 14.1747 163.772 14.772C162.748 15.3693 161.948 16.2333 161.372 17.364C160.796 18.4733 160.508 19.7747 160.508 21.268ZM198.911 14.772V32.5H194.399V30.26C193.823 31.028 193.066 31.636 192.127 32.084C191.21 32.5107 190.207 32.724 189.119 32.724C187.732 32.724 186.506 32.436 185.439 31.86C184.372 31.2627 183.53 30.3987 182.911 29.268C182.314 28.116 182.015 26.7507 182.015 25.172V14.772H186.495V24.532C186.495 25.94 186.847 27.028 187.551 27.796C188.255 28.5427 189.215 28.916 190.431 28.916C191.668 28.916 192.639 28.5427 193.343 27.796C194.047 27.028 194.399 25.94 194.399 24.532V14.772H198.911ZM205.603 12.66C204.814 12.66 204.153 12.4147 203.619 11.924C203.107 11.412 202.851 10.7827 202.851 10.036C202.851 9.28933 203.107 8.67067 203.619 8.18C204.153 7.668 204.814 7.412 205.603 7.412C206.393 7.412 207.043 7.668 207.555 8.18C208.089 8.67067 208.355 9.28933 208.355 10.036C208.355 10.7827 208.089 11.412 207.555 11.924C207.043 12.4147 206.393 12.66 205.603 12.66ZM207.811 14.772V32.5H203.331V14.772H207.811ZM211.086 23.636C211.086 21.8013 211.459 20.2013 212.206 18.836C212.952 17.4493 213.987 16.3827 215.31 15.636C216.632 14.868 218.147 14.484 219.854 14.484C222.051 14.484 223.864 15.0387 225.294 16.148C226.744 17.236 227.715 18.772 228.206 20.756H223.374C223.118 19.988 222.68 19.3907 222.062 18.964C221.464 18.516 220.718 18.292 219.822 18.292C218.542 18.292 217.528 18.7613 216.782 19.7C216.035 20.6173 215.662 21.9293 215.662 23.636C215.662 25.3213 216.035 26.6333 216.782 27.572C217.528 28.4893 218.542 28.948 219.822 28.948C221.635 28.948 222.819 28.1373 223.374 26.516H228.206C227.715 28.436 226.744 29.9613 225.294 31.092C223.843 32.2227 222.03 32.788 219.854 32.788C218.147 32.788 216.632 32.4147 215.31 31.668C213.987 30.9 212.952 29.8333 212.206 28.468C211.459 27.0813 211.086 25.4707 211.086 23.636ZM241.984 32.5L235.968 24.948V32.5H231.488V8.82H235.968V22.292L241.92 14.772H247.744L239.936 23.668L247.808 32.5H241.984Z" fill="#1A1A1A"/>
</svg>
