<svg width="246" height="42" viewBox="0 0 246 42" fill="none" xmlns="http://www.w3.org/2000/svg">
<path fill-rule="evenodd" clip-rule="evenodd" d="M2.36097 4.5572C-0.695064 5.08758 -0.64807 8.96082 1.71774 9.83922C3.43684 10.4776 3.80282 9.83553 5.02534 8.97379C6.16009 8.17401 7.93855 8.64593 9.29016 8.55952C10.7692 8.46492 12.0551 8.16308 12.5041 9.92774C12.8296 11.2074 13.1585 12.2925 13.5616 13.5473C14.3212 15.9117 15.0623 18.2958 15.7932 20.6696C16.5023 22.9726 17.4096 25.4532 18.0036 27.7561C18.4256 29.3923 18.6971 29.9124 20.5243 29.917C21.9993 29.9206 23.5094 29.8724 24.9965 29.869C31.1015 29.8547 37.2636 29.8107 43.3636 29.8641C44.4462 29.8736 46.7321 30.2761 47.31 29.144C48.1576 27.4836 45.9026 27.2424 44.8717 27.2836C41.8024 27.4062 38.5849 27.3146 35.4988 27.3146C32.4025 27.3146 29.2924 27.2859 26.1978 27.3189C25.0696 27.3308 22.4545 27.4652 21.5137 27.326C19.9704 27.0974 20.0858 25.6574 19.7149 24.4478C18.2725 19.7445 16.7625 14.9503 15.2406 10.2714C13.7986 5.8386 14.9829 6.05506 10.1602 5.99775C9.13176 5.98559 6.38181 6.14378 5.60819 5.88272C4.36073 5.46169 4.30308 4.22025 2.3609 4.55733L2.36097 4.5572Z" fill="#009444"/>
<path fill-rule="evenodd" clip-rule="evenodd" d="M39.1493 34.1584C39.5031 38.945 46.5384 38.3907 46.2818 33.7613C46.0165 28.9731 38.81 29.5695 39.1493 34.1584Z" fill="#FF470C"/>
<path fill-rule="evenodd" clip-rule="evenodd" d="M27.6279 34.1604C28.0596 29.7494 21.0545 28.8069 20.5071 33.7155C20.0362 37.939 27.1212 39.3379 27.6279 34.1604Z" fill="#FF470C"/>
<path fill-rule="evenodd" clip-rule="evenodd" d="M27.9562 22.4057L27.9649 22.424C28.0684 22.8544 30.8311 21.7309 31.1687 21.5349C34.0844 19.8425 34.6233 15.5474 31.532 13.2604C29.1944 11.5311 24.1482 10.6009 24.678 7.40576C24.9451 5.79472 26.3366 6.04676 26.9492 5.41747C26.2541 5.22054 24.3859 5.90954 23.757 6.3085C22.7859 6.92448 22.2078 7.49585 21.771 8.5819C20.8318 10.9173 22.003 13.0581 24.0144 14.266C25.9119 15.4054 27.7746 15.7374 29.4833 17.2804C30.3184 18.0345 30.6209 19.4047 30.2655 20.4553C29.7816 21.8862 28.9808 21.7723 27.9562 22.4057H27.9562Z" fill="#FF470C"/>
<path fill-rule="evenodd" clip-rule="evenodd" d="M27.6599 8.96952C28.1139 9.37628 29.697 9.96623 30.2691 10.2677C30.7659 10.5295 30.7472 10.6248 30.9062 10.0115C31.2484 8.69118 31.6075 7.42699 32.5981 6.42332C33.5998 5.40851 35.2905 5.14588 36.5141 5.88802C39.7444 7.847 39.5245 15.3498 38.6453 18.4547C38.3015 19.6689 37.6989 20.9587 36.6082 21.6742C36.4194 21.7981 34.8227 22.4171 35.8427 22.3704C36.5215 22.3393 37.384 22.0872 38.0257 21.8479C43.5873 19.7748 45.4813 13.0232 41.741 8.37028C39.0474 5.01931 34.0866 4.19965 30.3528 6.39579C29.6955 6.78247 27.8255 8.26516 27.66 8.96959L27.6599 8.96952Z" fill="#009444"/>
<path fill-rule="evenodd" clip-rule="evenodd" d="M43.0708 22.5653C43.1088 21.9443 42.73 22.2971 42.5692 22.641C42.4409 22.9154 42.1542 23.1594 41.8705 23.2657C41.3293 23.4687 40.1185 23.5227 39.5169 23.5522C37.9556 23.6286 36.0391 23.5483 34.4886 23.3329C32.2197 23.0177 29.6224 23.4394 27.4111 24.0152C26.4333 24.2699 25.6706 24.5855 27.3356 24.3844C30.5017 24.002 33.7362 24.2704 36.7715 25.239C38.2425 25.7083 39.5282 26.3887 41.0959 25.8706C42.3196 25.4662 42.9989 23.7396 43.0708 22.5654L43.0708 22.5653Z" fill="#009444"/>
<path fill-rule="evenodd" clip-rule="evenodd" d="M26.661 22.315C26.537 22.1662 24.7123 22.1513 25.4253 20.9011C25.8961 20.0757 26.3577 19.7999 26.2586 18.7158C26.102 17.0013 24.1729 15.9306 22.6519 16.8249C20.6088 18.026 21.1302 20.9811 24.1363 22.0339C24.5007 22.1616 26.4686 22.6885 26.661 22.315H26.661Z" fill="#FF470C"/>
<path d="M69.2246 32.224C67.7312 32.224 66.3872 31.968 65.1926 31.456C63.9979 30.9227 63.0592 30.176 62.3766 29.216C61.6939 28.256 61.3526 27.136 61.3526 25.856H65.2566C65.3419 26.816 65.7152 27.6053 66.3766 28.224C67.0592 28.8427 68.0086 29.152 69.2246 29.152C70.4832 29.152 71.4646 28.8533 72.1686 28.256C72.8726 27.6373 73.2246 26.848 73.2246 25.888C73.2246 25.1413 73.0006 24.5333 72.5526 24.064C72.1259 23.5947 71.5819 23.232 70.9206 22.976C70.2806 22.72 69.3846 22.4427 68.2326 22.144C66.7819 21.76 65.5979 21.376 64.6806 20.992C63.7846 20.5867 63.0166 19.968 62.3766 19.136C61.7366 18.304 61.4166 17.1947 61.4166 15.808C61.4166 14.528 61.7366 13.408 62.3766 12.448C63.0166 11.488 63.9126 10.752 65.0646 10.24C66.2166 9.728 67.5499 9.472 69.0646 9.472C71.2192 9.472 72.9792 10.016 74.3446 11.104C75.7312 12.1707 76.4992 13.6427 76.6486 15.52H72.6166C72.5526 14.7093 72.1686 14.016 71.4646 13.44C70.7606 12.864 69.8326 12.576 68.6806 12.576C67.6352 12.576 66.7819 12.8427 66.1206 13.376C65.4592 13.9093 65.1286 14.6773 65.1286 15.68C65.1286 16.3627 65.3312 16.928 65.7366 17.376C66.1632 17.8027 66.6966 18.144 67.3366 18.4C67.9766 18.656 68.8512 18.9333 69.9606 19.232C71.4326 19.6373 72.6272 20.0427 73.5446 20.448C74.4832 20.8533 75.2726 21.4827 75.9126 22.336C76.5739 23.168 76.9046 24.288 76.9046 25.696C76.9046 26.8267 76.5952 27.8933 75.9766 28.896C75.3792 29.8987 74.4939 30.7093 73.3206 31.328C72.1686 31.9253 70.8032 32.224 69.2246 32.224ZM97.1771 14.368V32H93.5291V29.92C92.9531 30.6453 92.1957 31.2213 91.2571 31.648C90.3397 32.0533 89.3584 32.256 88.3131 32.256C86.9264 32.256 85.6784 31.968 84.5691 31.392C83.4811 30.816 82.6171 29.9627 81.9771 28.832C81.3584 27.7013 81.0491 26.336 81.0491 24.736V14.368H84.6651V24.192C84.6651 25.7707 85.0597 26.9867 85.8491 27.84C86.6384 28.672 87.7157 29.088 89.0811 29.088C90.4464 29.088 91.5237 28.672 92.3131 27.84C93.1237 26.9867 93.5291 25.7707 93.5291 24.192V14.368H97.1771ZM105.638 16.96C106.257 16.1493 107.1 15.4667 108.166 14.912C109.233 14.3573 110.438 14.08 111.782 14.08C113.318 14.08 114.716 14.464 115.974 15.232C117.254 15.9787 118.257 17.0347 118.982 18.4C119.708 19.7653 120.07 21.3333 120.07 23.104C120.07 24.8747 119.708 26.464 118.982 27.872C118.257 29.2587 117.254 30.3467 115.974 31.136C114.716 31.904 113.318 32.288 111.782 32.288C110.438 32.288 109.244 32.0213 108.198 31.488C107.153 30.9333 106.3 30.2507 105.638 29.44V40.384H101.99V14.368H105.638V16.96ZM116.358 23.104C116.358 21.888 116.102 20.8427 115.59 19.968C115.1 19.072 114.438 18.4 113.606 17.952C112.796 17.4827 111.921 17.248 110.982 17.248C110.065 17.248 109.19 17.4827 108.358 17.952C107.548 18.4213 106.886 19.104 106.374 20C105.884 20.896 105.638 21.952 105.638 23.168C105.638 24.384 105.884 25.4507 106.374 26.368C106.886 27.264 107.548 27.9467 108.358 28.416C109.19 28.8853 110.065 29.12 110.982 29.12C111.921 29.12 112.796 28.8853 113.606 28.416C114.438 27.9253 115.1 27.2213 115.59 26.304C116.102 25.3867 116.358 24.32 116.358 23.104ZM139.838 22.752C139.838 23.4133 139.795 24.0107 139.71 24.544H126.238C126.344 25.952 126.867 27.0827 127.806 27.936C128.744 28.7893 129.896 29.216 131.262 29.216C133.224 29.216 134.611 28.3947 135.422 26.752H139.358C138.824 28.3733 137.854 29.7067 136.446 30.752C135.059 31.776 133.331 32.288 131.262 32.288C129.576 32.288 128.062 31.9147 126.718 31.168C125.395 30.4 124.35 29.3333 123.582 27.968C122.835 26.5813 122.462 24.9813 122.462 23.168C122.462 21.3547 122.824 19.7653 123.55 18.4C124.296 17.0133 125.331 15.9467 126.654 15.2C127.998 14.4533 129.534 14.08 131.262 14.08C132.926 14.08 134.408 14.4427 135.71 15.168C137.011 15.8933 138.024 16.9173 138.75 18.24C139.475 19.5413 139.838 21.0453 139.838 22.752ZM136.03 21.6C136.008 20.256 135.528 19.1787 134.59 18.368C133.651 17.5573 132.488 17.152 131.102 17.152C129.843 17.152 128.766 17.5573 127.87 18.368C126.974 19.1573 126.44 20.2347 126.27 21.6H136.03ZM147.076 16.928C147.609 16.032 148.313 15.3387 149.188 14.848C150.084 14.336 151.14 14.08 152.356 14.08V17.856H151.428C149.998 17.856 148.91 18.2187 148.164 18.944C147.438 19.6693 147.076 20.928 147.076 22.72V32H143.428V14.368H147.076V16.928ZM172.925 36.032L169.021 31.808C168.061 32.0853 167.005 32.224 165.853 32.224C163.784 32.224 161.874 31.744 160.125 30.784C158.397 29.8027 157.021 28.448 155.997 26.72C154.994 24.9707 154.493 23.008 154.493 20.832C154.493 18.656 154.994 16.704 155.997 14.976C157.021 13.248 158.397 11.904 160.125 10.944C161.874 9.96266 163.784 9.472 165.853 9.472C167.944 9.472 169.853 9.96266 171.581 10.944C173.33 11.904 174.706 13.248 175.709 14.976C176.712 16.704 177.213 18.656 177.213 20.832C177.213 22.88 176.765 24.736 175.869 26.4C174.994 28.0427 173.778 29.3653 172.221 30.368L177.565 36.032H172.925ZM158.237 20.832C158.237 22.4747 158.557 23.9253 159.197 25.184C159.858 26.4213 160.765 27.3813 161.917 28.064C163.069 28.7253 164.381 29.056 165.853 29.056C167.325 29.056 168.637 28.7253 169.789 28.064C170.941 27.3813 171.837 26.4213 172.477 25.184C173.138 23.9253 173.469 22.4747 173.469 20.832C173.469 19.1893 173.138 17.7493 172.477 16.512C171.837 15.2747 170.941 14.3253 169.789 13.664C168.637 13.0027 167.325 12.672 165.853 12.672C164.381 12.672 163.069 13.0027 161.917 13.664C160.765 14.3253 159.858 15.2747 159.197 16.512C158.557 17.7493 158.237 19.1893 158.237 20.832ZM196.865 14.368V32H193.217V29.92C192.641 30.6453 191.883 31.2213 190.945 31.648C190.027 32.0533 189.046 32.256 188.001 32.256C186.614 32.256 185.366 31.968 184.257 31.392C183.169 30.816 182.305 29.9627 181.665 28.832C181.046 27.7013 180.737 26.336 180.737 24.736V14.368H184.353V24.192C184.353 25.7707 184.747 26.9867 185.537 27.84C186.326 28.672 187.403 29.088 188.769 29.088C190.134 29.088 191.211 28.672 192.001 27.84C192.811 26.9867 193.217 25.7707 193.217 24.192V14.368H196.865ZM203.534 12.032C202.872 12.032 202.318 11.808 201.87 11.36C201.422 10.912 201.198 10.3573 201.198 9.696C201.198 9.03467 201.422 8.48 201.87 8.032C202.318 7.584 202.872 7.36 203.534 7.36C204.174 7.36 204.718 7.584 205.166 8.032C205.614 8.48 205.838 9.03467 205.838 9.696C205.838 10.3573 205.614 10.912 205.166 11.36C204.718 11.808 204.174 12.032 203.534 12.032ZM205.326 14.368V32H201.678V14.368H205.326ZM208.899 23.168C208.899 21.3547 209.262 19.7653 209.987 18.4C210.734 17.0133 211.758 15.9467 213.059 15.2C214.361 14.4533 215.854 14.08 217.539 14.08C219.673 14.08 221.433 14.592 222.819 15.616C224.227 16.6187 225.177 18.0587 225.667 19.936H221.731C221.411 19.0613 220.899 18.3787 220.195 17.888C219.491 17.3973 218.606 17.152 217.539 17.152C216.046 17.152 214.851 17.6853 213.955 18.752C213.081 19.7973 212.643 21.2693 212.643 23.168C212.643 25.0667 213.081 26.5493 213.955 27.616C214.851 28.6827 216.046 29.216 217.539 29.216C219.651 29.216 221.049 28.288 221.731 26.432H225.667C225.155 28.224 224.195 29.6533 222.787 30.72C221.379 31.7653 219.63 32.288 217.539 32.288C215.854 32.288 214.361 31.9147 213.059 31.168C211.758 30.4 210.734 29.3333 209.987 27.968C209.262 26.5813 208.899 24.9813 208.899 23.168ZM236.279 23.2L244.407 32H239.479L232.951 24.416V32H229.303V8.32H232.951V22.08L239.351 14.368H244.407L236.279 23.2Z" fill="white"/>
</svg>
