<svg width="31" height="31" viewBox="0 0 31 31" fill="none" xmlns="http://www.w3.org/2000/svg">
<g clip-path="url(#clip0_45_195)">
<path d="M19.4469 6.50931C20.1552 5.67819 21.0979 5.08023 22.1516 4.79369C22.2153 4.78248 22.276 4.7582 22.3298 4.72239C22.3837 4.68658 22.4296 4.64 22.4646 4.5856C22.4996 4.53119 22.5229 4.47013 22.5332 4.40626C22.5434 4.34239 22.5403 4.27709 22.5241 4.21447C22.5079 4.15186 22.4789 4.09327 22.4389 4.04241C22.3989 3.99155 22.3489 3.94951 22.2919 3.91894C22.2349 3.88836 22.1721 3.86992 22.1077 3.86477C22.0432 3.85962 21.9783 3.86787 21.9172 3.889C20.6795 4.22039 19.5709 4.91807 18.7367 5.89056C18.6874 5.93504 18.6481 5.98948 18.6214 6.05029C18.5948 6.1111 18.5813 6.17688 18.582 6.24328C18.5826 6.30968 18.5974 6.37519 18.6253 6.43545C18.6531 6.49572 18.6935 6.54937 18.7437 6.59286C18.7939 6.63635 18.8527 6.66868 18.9163 6.68772C18.98 6.70675 19.0469 6.71205 19.1127 6.70326C19.1785 6.69448 19.2417 6.67181 19.2981 6.63675C19.3545 6.6017 19.4028 6.55507 19.4399 6.49994L19.4469 6.50931ZM4.38829 5.75462C4.29159 5.67672 4.16792 5.64037 4.04445 5.65355C3.92097 5.66673 3.80777 5.72837 3.72969 5.82494C3.05987 6.6615 2.6225 7.65991 2.46173 8.71947C2.44268 8.84083 2.47203 8.96483 2.54348 9.06477C2.61493 9.16471 2.72276 9.2326 2.84376 9.25384H2.91641C3.02946 9.25512 3.13916 9.2155 3.2253 9.14228C3.31144 9.06906 3.36821 8.96718 3.38516 8.85541C3.52068 7.95904 3.89013 7.11424 4.45626 6.40619C4.53225 6.31021 4.56769 6.18832 4.55499 6.06656C4.54228 5.94481 4.48246 5.83285 4.38829 5.75462Z" fill="black"/>
<path d="M13.3485 28.9517C13.6035 29.0523 13.8761 29.1011 14.1501 29.095C14.4242 29.089 14.6943 29.0283 14.9446 28.9166C15.241 28.7843 15.5028 28.5854 15.7097 28.3354C15.9166 28.0854 16.063 27.791 16.1376 27.4752C16.223 27.5225 16.3114 27.5641 16.4025 27.5994C16.6575 27.7 16.93 27.7487 17.204 27.7427C17.4781 27.7367 17.7482 27.676 17.9985 27.5642C18.507 27.3349 18.9049 26.9151 19.1066 26.3951C19.3083 25.8751 19.2975 25.2967 19.0767 24.7845C18.9667 24.5278 18.8063 24.2957 18.605 24.1021C18.4037 23.9085 18.1656 23.7572 17.9048 23.6572C17.543 23.5139 17.148 23.4765 16.7657 23.5494L15.4439 20.4111C15.6373 20.2967 15.7833 20.1167 15.8551 19.9037C15.927 19.6908 15.9199 19.4591 15.8353 19.2509C15.5703 18.577 15.3295 17.8937 15.1134 17.2025C14.6095 15.5759 14.9118 13.708 15.2025 11.8986C15.2821 11.4064 15.3548 10.9447 15.4181 10.4712C15.5423 9.35094 15.5985 7.87906 14.9282 6.43297C14.4992 5.4929 13.8868 4.64796 13.127 3.94767C12.3671 3.24739 11.4751 2.70586 10.5032 2.35484C9.58307 2.0179 8.60486 1.86818 7.62604 1.91446C6.64722 1.96075 5.6875 2.20211 4.80324 2.62437C1.03449 4.41734 -0.563951 9.04625 1.24308 12.9369C1.91489 14.3938 3.02633 15.6036 4.4212 16.3962C4.70011 16.5556 4.97902 16.7103 5.25792 16.865C6.71339 17.6666 8.08917 18.4259 9.09933 19.7525C9.57667 20.4107 10.0022 21.105 10.372 21.8291C10.4774 22.0349 10.6568 22.1933 10.8742 22.2724C11.0915 22.3515 11.3308 22.3455 11.5439 22.2556L12.8517 25.2884C12.471 25.5758 12.1977 25.9825 12.0753 26.4434C11.953 26.9044 11.9887 27.3931 12.1767 27.8314C12.2873 28.0869 12.4481 28.3177 12.6493 28.5101C12.8506 28.7025 13.0883 28.8526 13.3485 28.9517ZM11.2017 21.3861C10.8097 20.6162 10.3559 19.8794 9.84464 19.183C8.70324 17.6994 7.18683 16.858 5.71027 16.0423C5.43605 15.89 5.15949 15.74 4.88527 15.5736C3.65886 14.8751 2.68253 13.8094 2.09386 12.5267C0.500111 9.11656 1.90636 5.04547 5.20636 3.47047C6.06774 3.05883 7.01027 2.84502 7.96495 2.84469C8.72188 2.84571 9.47287 2.97815 10.1845 3.23609C11.0395 3.54591 11.824 4.02329 12.4921 4.64026C13.1602 5.25724 13.6984 6.00138 14.0751 6.82906C14.6493 8.06656 14.5954 9.37203 14.4853 10.3611C14.4267 10.8134 14.354 11.2822 14.2767 11.7509C13.9696 13.6658 13.6509 15.6462 14.2181 17.4814C14.3235 17.8166 14.6048 18.6955 14.9634 19.6048L14.64 19.7572L14.6025 19.7759L11.2017 21.3861ZM12.4064 21.8548L14.6001 20.8119L16.0767 24.2947C16.102 24.3509 16.1382 24.4016 16.1831 24.4438C16.2281 24.486 16.2809 24.519 16.3386 24.5408C16.3963 24.5625 16.4577 24.5727 16.5193 24.5707C16.581 24.5687 16.6416 24.5545 16.6978 24.5291C16.8349 24.4679 16.9829 24.4347 17.133 24.4315C17.2831 24.4283 17.4324 24.4551 17.572 24.5103C17.7153 24.5666 17.846 24.6509 17.9563 24.7584C18.0665 24.8658 18.1542 24.9943 18.2142 25.1361C18.2784 25.2788 18.3138 25.4328 18.3181 25.5892C18.3224 25.7457 18.2957 25.9014 18.2395 26.0474C18.1833 26.1935 18.0986 26.3269 17.9905 26.44C17.8823 26.5531 17.7528 26.6437 17.6095 26.7064C17.4724 26.7676 17.3244 26.8008 17.1743 26.804C17.0241 26.8072 16.8749 26.7804 16.7353 26.7252C16.5921 26.6692 16.4616 26.5852 16.3514 26.4781C16.2411 26.3711 16.1533 26.2431 16.0931 26.1017C16.0678 26.0455 16.0316 25.9948 15.9866 25.9526C15.9417 25.9104 15.8889 25.8774 15.8312 25.8556C15.7735 25.8339 15.712 25.8237 15.6504 25.8257C15.5888 25.8277 15.5281 25.8419 15.472 25.8673L15.3923 25.9025C15.2805 25.9537 15.1933 26.0467 15.1495 26.1616C15.1056 26.2764 15.1087 26.4039 15.1579 26.5166C15.2795 26.8005 15.2853 27.1207 15.1741 27.4088C15.0629 27.6969 14.8434 27.9302 14.5626 28.0588C14.4255 28.1199 14.2775 28.1531 14.1274 28.1563C13.9773 28.1596 13.828 28.1328 13.6884 28.0775C13.5457 28.0213 13.4156 27.9372 13.3058 27.8301C13.1959 27.7231 13.1085 27.5952 13.0485 27.4541C12.9248 27.1687 12.9181 26.8462 13.0299 26.556C13.1417 26.2658 13.363 26.0311 13.6462 25.9025C13.758 25.8513 13.8452 25.7583 13.889 25.6434C13.9329 25.5286 13.9298 25.4011 13.8806 25.2884L12.4064 21.8548Z" fill="black"/>
<path d="M26.5789 16.3949C27.9733 15.6028 29.0847 14.3939 29.757 12.9379C31.5617 9.04494 29.9656 4.41604 26.1969 2.62541C25.3131 2.20296 24.3539 1.9613 23.3755 1.91461C22.3971 1.86792 21.4192 2.01715 20.4992 2.35354C19.5269 2.70509 18.6346 3.24734 17.8748 3.94845C17.1149 4.64957 16.5027 5.49542 16.0742 6.43635C16.0484 6.49025 16.0273 6.54416 16.0039 6.59807C16.0344 6.68244 16.0602 6.76447 16.0883 6.8465V6.88166C16.1117 6.96135 16.1352 7.04104 16.1563 7.11604L16.168 7.16057C16.1883 7.23869 16.2078 7.31682 16.2266 7.39494V7.43713C16.243 7.51682 16.2594 7.59416 16.2758 7.6715V7.69963C16.3624 8.11431 16.4164 8.53512 16.4375 8.95822C16.4375 8.95822 16.4375 8.97932 16.4375 8.99104V10.1442C16.4375 10.1817 16.4375 10.2379 16.4258 10.2848V10.3738C16.4258 10.4488 16.4117 10.5238 16.4023 10.6082C16.3391 11.1051 16.257 11.6137 16.1844 12.066C16.1305 12.3942 16.0789 12.7246 16.0297 13.0528C16.2148 14.3582 16.318 15.6613 16.0297 16.8496C16.0297 16.8801 16.0461 16.9106 16.0531 16.9387L16.0789 17.0184V17.0348C16.1586 17.2832 16.3133 17.7895 16.5359 18.366C16.6766 17.9559 16.7703 17.6348 16.8219 17.4965C17.3891 15.6613 17.0727 13.6809 16.7633 11.7684C16.6859 11.2832 16.6109 10.8309 16.5547 10.3856C16.3906 8.90197 16.5148 7.80744 16.9648 6.84416C17.3413 6.01604 17.8794 5.27145 18.5475 4.65407C19.2156 4.03668 20.0003 3.55893 20.8555 3.24885C21.5536 2.99056 22.2908 2.85344 23.0352 2.84338C23.989 2.84407 24.9307 3.05787 25.7914 3.46916C29.0938 5.04416 30.5 9.11525 28.9062 12.5442C28.3176 13.8269 27.3413 14.8926 26.1148 15.591C25.8406 15.7481 25.5641 15.9004 25.2898 16.0598C23.8133 16.8731 22.2852 17.7145 21.1555 19.1981C20.6439 19.8932 20.193 20.6311 19.8078 21.4035L16.8055 19.9973C16.7606 20.2245 16.6739 20.4415 16.55 20.6371L16.6953 20.9793L18.5937 21.8817L18.2047 22.7653C18.2727 22.791 18.3406 22.8192 18.4062 22.8496L18.4461 22.8684L18.6125 22.9528L18.65 22.9738C18.7063 23.0067 18.7617 23.041 18.8164 23.077L18.8398 23.0934C18.9008 23.134 18.9594 23.177 19.0156 23.2223L19.4375 22.2426C19.5494 22.2907 19.6696 22.3162 19.7914 22.3176C19.9623 22.32 20.1305 22.2756 20.278 22.1892C20.4255 22.1029 20.5465 21.9779 20.6281 21.8278C20.998 21.1052 21.4235 20.4125 21.9008 19.7559C22.9109 18.4293 24.2867 17.6723 25.7422 16.8707C26.0211 16.709 26.3 16.5543 26.5789 16.3949Z" fill="black"/>
</g>
<defs>
<clipPath id="clip0_45_195">
<rect width="30" height="30" fill="white" transform="translate(0.5 0.5)"/>
</clipPath>
</defs>
</svg>
