<svg width="31" height="31" viewBox="0 0 31 31" fill="none" xmlns="http://www.w3.org/2000/svg">
<path d="M21.75 23.5372H16.75L11.1875 27.2371C10.3625 27.7871 9.25 27.1997 9.25 26.1997V23.5372C5.5 23.5372 3 21.0372 3 17.2872V9.78711C3 6.03711 5.5 3.53711 9.25 3.53711H21.75C25.5 3.53711 28 6.03711 28 9.78711V17.2872C28 21.0372 25.5 23.5372 21.75 23.5372Z" stroke="#292D32" stroke-width="1.5" stroke-miterlimit="10" stroke-linecap="round" stroke-linejoin="round"/>
<path d="M15.4998 14.6992V14.4368C15.4998 13.5868 16.0248 13.1367 16.5498 12.7742C17.0623 12.4242 17.5747 11.9743 17.5747 11.1493C17.5747 9.99926 16.6498 9.07422 15.4998 9.07422C14.3498 9.07422 13.4248 9.99926 13.4248 11.1493" stroke="#292D32" stroke-width="1.5" stroke-linecap="round" stroke-linejoin="round"/>
<path d="M15.4944 17.6875H15.5056" stroke="#292D32" stroke-width="1.5" stroke-linecap="round" stroke-linejoin="round"/>
</svg>
