<svg width="31" height="31" viewBox="0 0 31 31" fill="none" xmlns="http://www.w3.org/2000/svg">
<path d="M25.3438 8.47813C25.3438 8.105 25.1966 7.75297 24.9299 7.48578C24.6665 7.22295 24.3096 7.07534 23.9375 7.07534C23.5655 7.07534 23.2086 7.22295 22.9452 7.48578L21.6407 8.79031L21.0683 8.21797C20.9373 8.08764 20.8334 7.93262 20.7627 7.76189C20.692 7.59115 20.6558 7.40809 20.6563 7.22328V4.71875C21.4316 4.71875 22.0625 4.08781 22.0625 3.3125C22.0625 2.53719 21.4316 1.90625 20.6563 1.90625H10.3438C9.56849 1.90625 8.93755 2.53719 8.93755 3.3125C8.93755 4.08781 9.56849 4.71875 10.3438 4.71875V7.22328C10.3438 7.59922 10.1971 7.95219 9.93177 8.21797L9.35989 8.78984L8.05489 7.48578C7.79152 7.22295 7.43463 7.07534 7.06255 7.07534C6.69047 7.07534 6.33358 7.22295 6.07021 7.48578C5.9393 7.61625 5.83544 7.77127 5.76457 7.94196C5.69371 8.11265 5.65723 8.29565 5.65723 8.48047C5.65723 8.66529 5.69371 8.84828 5.76457 9.01897C5.83544 9.18966 5.9393 9.34469 6.07021 9.47516L7.3813 10.7863C6.87192 11.3783 6.59242 12.1338 6.5938 12.9148V26.75C6.5938 28.0423 7.64521 29.0938 8.93755 29.0938H22.0625C23.3549 29.0938 24.4063 28.0423 24.4063 26.75V12.9148C24.4077 12.1347 24.1289 11.38 23.6207 10.7881L24.9304 9.47516C25.1971 9.20797 25.3438 8.85359 25.3438 8.47813ZM9.87505 3.3125C9.87505 3.18818 9.92443 3.06895 10.0123 2.98104C10.1003 2.89314 10.2195 2.84375 10.3438 2.84375H20.6563C20.7806 2.84375 20.8998 2.89314 20.9878 2.98104C21.0757 3.06895 21.125 3.18818 21.125 3.3125C21.125 3.43682 21.0757 3.55605 20.9878 3.64396C20.8998 3.73186 20.7806 3.78125 20.6563 3.78125H10.3438C10.2195 3.78125 10.1003 3.73186 10.0123 3.64396C9.92443 3.55605 9.87505 3.43682 9.87505 3.3125ZM10.5946 8.88078C10.813 8.66363 10.9861 8.40533 11.104 8.12082C11.2218 7.83631 11.2821 7.53124 11.2813 7.22328V4.71875H19.7188V7.22328C19.7188 7.84953 19.9625 8.43828 20.4055 8.88078L22.7821 11.2573C23.1639 11.6418 23.3991 12.1478 23.4468 12.6875H7.55333C7.60115 12.1479 7.83631 11.6421 8.21802 11.2578L8.35536 11.12C8.35958 11.1163 8.36474 11.1153 8.36942 11.1106C8.37411 11.1059 8.37411 11.1012 8.37786 11.0975L10.595 8.88031L10.5946 8.88078ZM7.5313 13.625H23.4688V25.3438H7.5313V13.625ZM6.5938 8.47813C6.59405 8.41672 6.60648 8.35597 6.63038 8.29941C6.65428 8.24284 6.68916 8.19158 6.73302 8.14859C6.82059 8.06152 6.93906 8.01264 7.06255 8.01264C7.18604 8.01264 7.30451 8.06152 7.39208 8.14859L8.69661 9.45312L8.03567 10.1141L6.73349 8.81281C6.68925 8.76902 6.65412 8.7169 6.63015 8.65945C6.60617 8.602 6.59382 8.54037 6.5938 8.47813ZM22.0625 28.1562H8.93755C8.16224 28.1562 7.5313 27.5253 7.5313 26.75V26.2812H23.4688V26.75C23.4688 27.5253 22.8379 28.1562 22.0625 28.1562ZM24.2666 8.81281L22.9668 10.1159L22.3035 9.45312L23.608 8.14859C23.6956 8.06152 23.8141 8.01264 23.9375 8.01264C24.061 8.01264 24.1795 8.06152 24.2671 8.14859C24.3113 8.19185 24.3465 8.24353 24.3705 8.30058C24.3945 8.35764 24.4068 8.41891 24.4068 8.4808C24.4067 8.54269 24.3943 8.60395 24.3702 8.66097C24.3462 8.71799 24.3109 8.76962 24.2666 8.81281Z" fill="black"/>
<path d="M15.8204 16.3303C15.7336 16.2486 15.619 16.2031 15.4998 16.2031C15.3806 16.2031 15.2659 16.2486 15.1792 16.3303C15.091 16.4132 13.022 18.3759 13.022 20.2884C13.022 21.6548 14.1334 22.7662 15.4998 22.7662C16.8662 22.7662 17.9776 21.6548 17.9776 20.2884C17.9776 18.3759 15.9085 16.4132 15.8204 16.3303ZM15.4998 21.8287C15.0914 21.8282 14.6999 21.6658 14.4112 21.377C14.1224 21.0883 13.96 20.6968 13.9595 20.2884C13.9595 19.1732 14.9696 17.924 15.5017 17.3437C16.1124 18.0103 17.0401 19.2459 17.0401 20.2884C17.0396 20.6968 16.8772 21.0883 16.5884 21.377C16.2996 21.6658 15.9081 21.8282 15.4998 21.8287Z" fill="black"/>
</svg>
