<svg width="31" height="31" viewBox="0 0 31 31" fill="none" xmlns="http://www.w3.org/2000/svg">
<g clip-path="url(#clip0_45_277)">
<path d="M15.5006 14.0938C15.4175 14.0938 15.336 14.1159 15.2642 14.1578C15.1925 14.1996 15.1332 14.2598 15.0923 14.3321L13.8806 16.4797C13.7154 16.756 13.6272 17.0714 13.625 17.3933C13.6229 17.7151 13.7069 18.0317 13.8684 18.3102C14.0343 18.596 14.2724 18.8333 14.5589 18.9983C14.8453 19.1632 15.17 19.25 15.5006 19.25C15.8311 19.25 16.1559 19.1632 16.4423 18.9983C16.7288 18.8333 16.9669 18.596 17.1328 18.3102C17.2939 18.033 17.3781 17.7179 17.3767 17.3974C17.3753 17.0768 17.2884 16.7624 17.1248 16.4867L15.9089 14.3321C15.868 14.2598 15.8087 14.1996 15.7369 14.1578C15.6652 14.1159 15.5836 14.0938 15.5006 14.0938ZM16.3186 17.8449C16.2346 17.9873 16.115 18.1052 15.9716 18.1872C15.8281 18.2692 15.6657 18.3123 15.5005 18.3123C15.3352 18.3123 15.1729 18.2692 15.0294 18.1872C14.8859 18.1052 14.7663 17.9873 14.6824 17.8449C14.6024 17.7086 14.5611 17.5531 14.5629 17.395C14.5647 17.237 14.6096 17.0824 14.6927 16.948L15.5006 15.5162L16.3127 16.9552C16.3942 17.0891 16.4378 17.2425 16.4388 17.3992C16.4399 17.5559 16.3984 17.71 16.3188 17.8449H16.3186ZM20.1344 17.6272C20.0947 17.5511 20.035 17.4874 19.9616 17.443C19.8883 17.3985 19.8042 17.375 19.7184 17.375C19.6326 17.375 19.5485 17.3985 19.4752 17.443C19.4018 17.4874 19.3421 17.5511 19.3024 17.6272L16.06 23.8452C15.6783 24.5504 15.4856 25.3424 15.5008 26.1442C15.516 26.946 15.7385 27.7301 16.1468 28.4204C16.5052 29.0517 17.0246 29.5767 17.652 29.942C18.2794 30.3073 18.9924 30.4997 19.7184 30.4997C20.4444 30.4997 21.1574 30.3073 21.7848 29.942C22.4122 29.5767 22.9316 29.0517 23.29 28.4204C23.6979 27.7315 23.9206 26.9488 23.9365 26.1483C23.9524 25.3479 23.7609 24.557 23.3807 23.8524L20.1344 17.6272ZM22.4833 27.9413C22.2081 28.4329 21.8069 28.8423 21.3209 29.1272C20.8348 29.4121 20.2817 29.5623 19.7183 29.5623C19.1549 29.5623 18.6017 29.4121 18.1157 29.1272C17.6297 28.8423 17.2284 28.4329 16.9532 27.9413C16.6228 27.3912 16.4428 26.7638 16.4315 26.1221C16.4201 25.4805 16.5776 24.8471 16.8883 24.2855L19.7184 18.8586L22.5525 24.2933C22.8615 24.8542 23.0178 25.4864 23.0056 26.1267C22.9935 26.7669 22.8134 27.3926 22.4833 27.9413Z" fill="black"/>
<path d="M19.0569 27.0746C18.3852 26.5845 18.5624 25.7239 18.5717 25.6819C18.5995 25.5607 18.5781 25.4334 18.512 25.3279C18.446 25.2225 18.3408 25.1476 18.2196 25.1197C18.0984 25.0918 17.9711 25.1132 17.8656 25.1792C17.7601 25.2451 17.6852 25.3503 17.6572 25.4715C17.6431 25.5324 17.3227 26.9698 18.5033 27.8316C18.553 27.868 18.6094 27.8942 18.6692 27.9087C18.729 27.9233 18.7912 27.9259 18.852 27.9165C18.9129 27.907 18.9713 27.8857 19.0239 27.8537C19.0765 27.8217 19.1223 27.7796 19.1586 27.7299C19.195 27.6802 19.2212 27.6238 19.2357 27.564C19.2503 27.5041 19.2529 27.442 19.2435 27.3812C19.234 27.3203 19.2127 27.2619 19.1807 27.2093C19.1487 27.1567 19.1066 27.1109 19.0569 27.0746ZM11.5442 17.0018C11.4997 16.9654 11.4481 16.9387 11.3926 16.9233C11.3372 16.9079 11.2792 16.9042 11.2222 16.9125C11.1653 16.9207 11.1107 16.9407 11.0619 16.9712C11.0131 17.0017 10.9712 17.042 10.9388 17.0895C10.9116 17.1277 8.25009 20.9536 11.4505 25.1743C11.4894 25.227 11.54 25.2699 11.5984 25.2996C11.6568 25.3293 11.7213 25.3449 11.7868 25.3454C11.8866 25.3451 11.983 25.3088 12.0582 25.2432C12.1481 25.163 12.2046 25.0519 12.2166 24.9321C12.2285 24.8122 12.195 24.6922 12.1227 24.5958C9.35868 20.9506 11.5306 17.7825 11.627 17.6461C11.6964 17.5479 11.7264 17.4271 11.7111 17.3078C11.6958 17.1884 11.6362 17.0794 11.5442 17.0018Z" fill="black"/>
<path d="M16.2832 30.0678C16.2003 29.9896 16.1196 29.9086 16.0411 29.8247L16.04 29.8236C15.9618 29.7396 15.8861 29.6529 15.8126 29.5634L15.8119 29.5625H12.8065C12.6769 29.5616 12.5489 29.5344 12.4302 29.4824C12.3115 29.4304 12.2046 29.3548 12.1161 29.2601C11.8857 29.0159 11.6606 28.7667 11.4411 28.5127C9.55505 26.33 8.42864 24.1233 8.09278 21.9542C7.92745 20.7938 8.00487 19.6116 8.32011 18.4827C8.63536 17.3537 9.18158 16.3025 9.92419 15.3957C10.2847 14.9464 10.6901 14.5214 11.1195 14.0714C12.034 13.1124 12.98 12.1207 13.5153 10.8364C13.9348 9.82996 13.9925 8.77269 14.0206 7.59402C14.0206 7.59402 14.0417 6.74136 14.0241 6.36191H16.9817C16.9072 7.82511 16.8936 9.41699 17.4851 10.8361C18.0207 12.121 18.9664 13.1126 19.8816 14.0717C20.3105 14.5217 20.716 14.9464 21.0765 15.3957C22.3808 16.998 23.0615 19.0182 22.9927 21.0832L23.7544 22.5455C23.7844 22.3961 23.811 22.2468 23.8341 22.0974C24.0192 20.8084 23.9347 19.495 23.5859 18.2404C23.237 16.9858 22.6315 15.8173 21.8077 14.8088C21.7718 14.7643 21.7339 14.7209 21.6973 14.6768C21.9399 14.0423 22.0641 13.3687 22.0639 12.6893C22.0639 10.0662 20.2615 7.87597 17.8836 7.39738C17.8904 6.88293 17.9194 6.36425 17.9487 5.85144L17.9553 5.73542C18.0235 4.53214 18.249 3.58457 19.1265 2.86902C19.1988 2.81061 19.2588 2.73837 19.303 2.65652C19.3471 2.57467 19.3745 2.48485 19.3836 2.3923C19.3928 2.3016 19.3838 2.20997 19.3572 2.12276C19.3306 2.03556 19.2869 1.95453 19.2286 1.88441C19.1369 1.77454 19.0136 1.69537 18.8754 1.65812C18.7372 1.62088 18.5909 1.62714 18.4564 1.67605C16.1283 2.51558 13.239 0.880347 13.2104 0.863706C13.1993 0.857483 13.188 0.851621 13.1766 0.846128C11.0757 -0.145981 10.0997 1.26402 9.85036 1.71988C9.80238 1.80718 9.77356 1.9037 9.7658 2.00301C9.75804 2.10232 9.77153 2.20214 9.80537 2.29583C9.83921 2.38952 9.89262 2.47493 9.96205 2.54636C10.0315 2.6178 10.1153 2.67362 10.208 2.71011C11.2641 3.10734 12.1492 3.85921 12.7121 4.83707C13.1328 5.59175 13.1093 6.53699 13.0864 7.45128L13.0838 7.57175C13.0575 8.65386 13.0069 9.61949 12.6502 10.4757C12.1815 11.5995 11.2967 12.5274 10.4407 13.4246C10.017 13.8689 9.57872 14.3286 9.19317 14.8088C8.36919 15.8172 7.76358 16.9857 7.41469 18.2403C7.06579 19.495 6.98121 20.8084 7.1663 22.0974C7.52958 24.443 8.72911 26.8076 10.7318 29.1254C10.9601 29.3895 11.1941 29.6487 11.4336 29.9028C11.6099 30.0903 11.8225 30.24 12.0586 30.3427C12.2946 30.4454 12.5491 30.4989 12.8065 30.5H16.8092C16.6246 30.3677 16.4487 30.2233 16.2832 30.0678ZM21.1261 12.6893C21.1251 13.0848 21.0734 13.4784 20.9724 13.8607C20.8355 13.7148 20.698 13.5695 20.5599 13.4248C19.7042 12.5276 18.8192 11.5997 18.3504 10.4757C18.086 9.80349 17.9355 9.09194 17.9051 8.37027C18.8436 8.63346 19.6685 9.19991 20.2512 9.98123C20.8339 10.7626 21.1415 11.7148 21.1261 12.6893ZM10.8153 1.94863C11.1439 1.5155 11.73 1.20566 12.7601 1.68613C13.0215 1.83378 15.4908 3.1798 17.9136 2.78043C17.2932 3.59207 17.1073 4.54035 17.0377 5.42464H13.9111C13.8378 5.05948 13.7097 4.70752 13.531 4.38074C12.9147 3.29601 11.9611 2.44207 10.8153 1.94863Z" fill="black"/>
</g>
<defs>
<clipPath id="clip0_45_277">
<rect width="30" height="30" fill="white" transform="translate(0.5 0.5)"/>
</clipPath>
</defs>
</svg>
