<svg width="31" height="31" viewBox="0 0 31 31" fill="none" xmlns="http://www.w3.org/2000/svg">
<path d="M30.4215 23.0843C30.3808 22.8073 30.3206 22.5316 30.2567 22.2599C29.0418 17.1024 26.3773 12.2945 22.6479 8.53046C18.9185 4.76646 14.1353 2.05761 8.98929 0.795146C8.14068 0.586963 7.2422 0.41833 6.40237 0.65956C5.21486 1.00069 4.34415 2.2219 4.40872 3.45577C4.47329 4.68964 5.46681 5.81329 6.68345 6.02851C6.51066 5.99827 3.3712 18.8705 3.06868 20.0491C2.46271 22.4101 1.85808 24.7715 1.25474 27.1332C1.08282 27.8062 0.273 29.532 0.812882 30.1311C1.37257 30.7521 3.05995 29.9495 3.72212 29.7804C10.8052 27.9713 17.8854 26.1508 24.9626 24.3187C25.1985 25.5858 26.4191 26.5946 27.7078 26.5879C28.9966 26.5811 30.2065 25.5594 30.429 24.29C30.4989 23.8912 30.4806 23.4864 30.4215 23.0843ZM7.023 7.9369C8.54269 8.55741 9.40636 10.2387 8.972 11.8596C8.5455 13.4515 6.98966 14.4743 5.38894 14.2896L7.023 7.9369ZM6.05861 27.2097C6.5314 25.4455 8.3515 24.3934 10.1157 24.8673C11.1018 25.1314 11.8922 25.8226 12.293 26.746L5.96064 28.3742C5.92478 27.9851 5.95689 27.5891 6.05861 27.2097ZM24.0717 23.7175C23.1306 19.6305 21.0661 15.9008 18.0818 12.9163C17.9235 12.7579 17.667 12.7579 17.5086 12.9163C17.3503 13.0745 17.3503 13.3311 17.5086 13.4895C20.39 16.3711 22.3818 19.9731 23.2863 23.9195L13.0878 26.5417C12.607 25.3321 11.5955 24.4243 10.3255 24.0841C8.12925 23.4964 5.86378 24.8041 5.27556 26.9997C5.13775 27.5135 5.10587 28.0516 5.17103 28.5773L1.46872 29.5292L3.84282 20.2995H7.7812C8.00515 20.2995 8.18655 20.1179 8.18655 19.8941C8.18655 19.6704 8.00515 19.4888 7.7812 19.4888H4.05153L5.18591 15.0788C5.37751 15.1062 5.56888 15.1242 5.75872 15.1242C7.58046 15.1241 9.26544 13.8966 9.75499 12.0695C10.3054 10.0156 9.18148 7.88423 7.22626 7.14665L7.46831 6.20569C11.6862 7.1804 15.5214 9.30724 18.6062 12.3921C21.6917 15.4776 23.8187 19.3139 24.793 23.5322L24.0717 23.7175ZM28.2175 25.7073C27.7016 25.8454 27.1036 25.7469 26.6193 25.4429C26.1659 25.1581 25.8656 24.7364 25.7743 24.2551C24.8728 19.532 22.5924 15.2318 19.1794 11.8189C15.7668 8.40595 11.4662 6.12542 6.75716 5.22683C6.23714 5.10806 5.79575 4.78532 5.51433 4.31792C5.23062 3.847 5.15122 3.30097 5.29068 2.78042C5.52909 1.89044 6.32925 1.31194 7.22614 1.31194C7.39372 1.31194 7.56476 1.33216 7.73603 1.37423C7.74159 1.37558 7.7471 1.37686 7.75267 1.37792C13.1656 2.47087 18.0882 5.11005 21.9881 9.00999C25.8881 12.91 28.5271 17.8327 29.6241 23.2623C29.8917 24.3504 29.2739 25.4244 28.2175 25.7073ZM12.8576 16.8669C11.6104 18.1141 11.6104 20.1435 12.8576 21.3907C13.4617 21.995 14.265 22.3275 15.1195 22.3275C15.9741 22.3275 16.7774 21.995 17.3814 21.3907C18.6287 20.1434 18.6287 18.1141 17.3814 16.8669C16.1343 15.6197 14.1049 15.6197 12.8576 16.8669ZM16.8083 20.8175C16.3573 21.2685 15.7574 21.5171 15.1195 21.5171C14.4816 21.5171 13.8819 21.2685 13.4308 20.8175C12.4996 19.8865 12.4996 18.3712 13.4308 17.4401C13.8965 16.9746 14.5078 16.7418 15.1195 16.7418C15.731 16.7418 16.3427 16.9746 16.8083 17.4401C17.7393 18.3711 17.7393 19.8865 16.8083 20.8175ZM14.3982 13.4633C15.1094 12.7521 15.1094 11.5949 14.3982 10.8837C13.687 10.1725 12.5298 10.1725 11.8185 10.8837C11.1073 11.5949 11.1073 12.7521 11.8185 13.4633C12.1742 13.819 12.6413 13.9968 13.1084 13.9968C13.5755 13.9968 14.0426 13.819 14.3982 13.4633ZM12.3917 11.4569C12.5892 11.2593 12.8488 11.1605 13.1083 11.1605C13.3678 11.1605 13.6274 11.2593 13.8249 11.4569C14.22 11.8521 14.22 12.4949 13.8249 12.8901C13.4299 13.2852 12.7867 13.2852 12.3917 12.8901C11.9967 12.495 11.9967 11.8521 12.3917 11.4569Z" fill="black"/>
</svg>
