<svg width="50" height="50" viewBox="0 0 50 50" fill="none" xmlns="http://www.w3.org/2000/svg">
<rect width="50" height="50" rx="25" fill="#EDF5FE"/>
<path d="M25 30.0007C31.2132 30.0007 36.25 25.1504 36.25 19.1673C36.25 13.1842 31.2132 8.33398 25 8.33398C18.7868 8.33398 13.75 13.1842 13.75 19.1673C13.75 25.1504 18.7868 30.0007 25 30.0007Z" fill="#009444"/>
<path d="M31.3167 31.0165C31.8667 30.7331 32.5 31.1498 32.5 31.7665V39.8498C32.5 41.3498 31.45 42.0831 30.15 41.4665L25.6833 39.3498C25.3 39.1831 24.7 39.1831 24.3167 39.3498L19.85 41.4665C18.55 42.0665 17.5 41.3331 17.5 39.8331L17.5333 31.7665C17.5333 31.1498 18.1833 30.7498 18.7167 31.0165C20.6 31.9665 22.7333 32.4998 25 32.4998C27.2667 32.4998 29.4167 31.9665 31.3167 31.0165Z" fill="#009444"/>
</svg>
