<svg width="31" height="30" viewBox="0 0 31 30" fill="none" xmlns="http://www.w3.org/2000/svg">
<path d="M26.125 14.125V8.80001C26.125 3.76251 24.95 2.5 20.225 2.5H10.775C6.05 2.5 4.875 3.76251 4.875 8.80001V22.875C4.875 26.2 6.70001 26.9875 8.91251 24.6125L8.92499 24.6C9.94999 23.5125 11.5125 23.6 12.4 24.7875L13.6625 26.475" stroke="#292D32" stroke-width="1.5" stroke-linecap="round" stroke-linejoin="round"/>
<path d="M10.5 8.75H20.5" stroke="#292D32" stroke-width="1.5" stroke-linecap="round" stroke-linejoin="round"/>
<path d="M11.75 13.75H19.25" stroke="#292D32" stroke-width="1.5" stroke-linecap="round" stroke-linejoin="round"/>
<path d="M23.2638 18.4624L18.8388 22.8874C18.6638 23.0624 18.5013 23.3874 18.4638 23.6249L18.2263 25.3124C18.1388 25.9249 18.5638 26.3499 19.1763 26.2624L20.8638 26.0249C21.1013 25.9874 21.4388 25.8249 21.6013 25.6499L26.0263 21.2249C26.7888 20.4624 27.1513 19.5749 26.0263 18.4499C24.9138 17.3374 24.0263 17.6999 23.2638 18.4624Z" stroke="#292D32" stroke-width="1.5" stroke-miterlimit="10" stroke-linecap="round" stroke-linejoin="round"/>
<path d="M22.624 19.0996C22.999 20.4496 24.049 21.4996 25.399 21.8746" stroke="#292D32" stroke-width="1.5" stroke-miterlimit="10" stroke-linecap="round" stroke-linejoin="round"/>
</svg>
