<svg width="50" height="51" viewBox="0 0 50 51" fill="none" xmlns="http://www.w3.org/2000/svg">
<rect y="0.5" width="50" height="50" rx="25" fill="#FBE6EA"/>
<path d="M35 8.83398H15C12.2333 8.83398 10 11.0507 10 13.784V31.9673C10 34.7007 12.2333 36.9173 15 36.9173H16.2667C17.6 36.9173 18.8667 37.434 19.8 38.3673L22.65 41.184C23.95 42.4673 26.0667 42.4673 27.3667 41.184L30.2167 38.3673C31.15 37.434 32.4333 36.9173 33.75 36.9173H35C37.7667 36.9173 40 34.7007 40 31.9673V13.784C40 11.0507 37.7667 8.83398 35 8.83398ZM22.3 27.184C22.9833 27.184 23.55 27.7507 23.55 28.434C23.55 29.1173 22.9833 29.684 22.3 29.684H17.8333C17.1 29.684 16.4167 29.334 15.9833 28.734C15.5667 28.1673 15.4667 27.4673 15.6667 26.8007C16.25 25.0173 17.6833 24.0507 18.95 23.184C20.2833 22.284 21.0333 21.7173 21.0333 20.7507C21.0333 19.884 20.3333 19.184 19.4667 19.184C18.6 19.184 17.9167 19.9007 17.9167 20.7673C17.9167 21.4507 17.35 22.0173 16.6667 22.0173C15.9833 22.0173 15.4167 21.4507 15.4167 20.7673C15.4167 18.534 17.2333 16.7007 19.4833 16.7007C21.7333 16.7007 23.55 18.5173 23.55 20.7673C23.55 23.1173 21.7833 24.3173 20.3667 25.284C19.4833 25.884 18.65 26.4507 18.2333 27.2007H22.3V27.184ZM33.3333 27.3007H32.9833V28.4507C32.9833 29.134 32.4167 29.7007 31.7333 29.7007C31.05 29.7007 30.4833 29.134 30.4833 28.4507V27.3007H27.2167C27.2167 27.3007 27.2167 27.3007 27.2 27.3007C26.3833 27.3007 25.6333 26.8673 25.2167 26.1673C24.8 25.4507 24.8 24.5673 25.2167 23.8673C26.35 21.9173 27.6667 19.7007 28.8667 17.7673C29.4 16.9173 30.4167 16.534 31.3667 16.8007C32.3167 17.084 32.9833 17.9507 32.9667 18.9507V24.8173H33.3333C34.0167 24.8173 34.5833 25.384 34.5833 26.0673C34.5833 26.7507 34.0167 27.3007 33.3333 27.3007Z" fill="#FF8A00"/>
<path d="M30.4833 24.8004V19.9004C29.5 21.5004 28.4833 23.2171 27.5667 24.7837H30.4833V24.8004Z" fill="#FF8A00"/>
</svg>
