<svg width="17" height="31" viewBox="0 0 17 31" fill="none" xmlns="http://www.w3.org/2000/svg">
<path d="M3.69102 22.7574C3.753 22.8273 3.82849 22.8807 3.9119 22.9173C4.99256 25.4712 6.93992 28.1745 10.4018 30.3292C10.507 30.3948 10.6243 30.4255 10.7397 30.4255C10.8788 30.4253 11.0141 30.3799 11.1251 30.296C11.2361 30.2122 11.3168 30.0945 11.3551 29.9608C11.3933 29.827 11.387 29.6844 11.337 29.5546C11.2871 29.4247 11.1963 29.3147 11.0783 29.241C7.76904 27.1809 5.95487 24.625 4.97443 22.2391C6.18893 20.1223 6.74871 17.1737 6.51794 14.0462C6.26838 10.6931 5.14915 7.67727 3.44838 5.77144C3.38253 5.69855 3.30098 5.64157 3.2099 5.6048C3.11881 5.56802 3.02056 5.55241 2.92256 5.55913C2.82447 5.56646 2.72937 5.59622 2.64461 5.64612C2.55984 5.69602 2.48767 5.76473 2.43366 5.84694C1.03322 7.98386 0.372889 11.1322 0.621131 14.4843C0.870362 17.8351 1.98893 20.8506 3.69102 22.7574ZM3.05575 7.34034C4.24256 9.04045 5.04432 11.507 5.24014 14.1411C5.4119 16.4643 5.09706 18.7258 4.38827 20.5021C3.57696 17.4721 3.97586 15.048 4.01113 14.8529C4.04122 14.6857 4.00381 14.5135 3.90709 14.3739C3.81038 14.2343 3.66225 14.1387 3.4952 14.1081C3.4124 14.0928 3.32739 14.094 3.24506 14.1117C3.16273 14.1294 3.0847 14.1631 3.01546 14.211C2.94622 14.2589 2.88714 14.3201 2.8416 14.3909C2.79607 14.4617 2.76499 14.5409 2.75014 14.6237C2.74289 14.663 2.47685 16.2408 2.74553 18.4888C2.30542 17.239 2.00772 15.8425 1.89992 14.3897C1.70476 11.7559 2.13234 9.19738 3.05575 7.34034ZM10.415 17.3472C10.3138 19.7188 10.4219 22.3773 10.8544 25.3347C10.8666 25.418 10.895 25.4981 10.9381 25.5704C10.9813 25.6426 11.0382 25.7057 11.1057 25.756C11.1732 25.8062 11.25 25.8426 11.3316 25.8632C11.4132 25.8837 11.4981 25.888 11.5814 25.8757C11.6646 25.8635 11.7447 25.8351 11.8169 25.7919C11.8892 25.7488 11.9522 25.6919 12.0025 25.6244C12.0527 25.5568 12.0891 25.4801 12.1097 25.3985C12.1303 25.3169 12.1346 25.2321 12.1223 25.1488C11.6895 22.195 11.5982 19.5447 11.7195 17.1916C13.5343 15.5472 14.9786 12.8963 15.7157 9.83166C16.5007 6.56298 16.3546 3.34935 15.3165 1.01529C15.2766 0.925409 15.2166 0.845926 15.141 0.783004C15.0654 0.720081 14.9764 0.67541 14.8808 0.652455C14.7852 0.6295 14.6856 0.628878 14.5897 0.650637C14.4938 0.672396 14.4042 0.715951 14.3278 0.777924C12.3406 2.3877 10.7512 5.18364 9.96696 8.45067C9.18234 11.7177 9.32838 14.9307 10.3672 17.2667C10.3794 17.2954 10.3978 17.3211 10.415 17.3472ZM14.9038 5.0343C14.9779 6.45221 14.8382 7.99573 14.4693 9.53265C13.951 11.6894 13.027 13.6548 11.8883 15.1123C12.4415 10.1699 13.9243 6.79705 14.9038 5.0343ZM11.2134 8.74935C11.8296 6.18221 13.0174 3.87716 14.463 2.38902C14.5276 2.59705 14.581 2.81562 14.6321 3.0365C13.9527 3.97507 11.7192 7.43825 10.7885 13.4659C10.6873 11.989 10.8257 10.3644 11.2134 8.74935Z" fill="black"/>
</svg>
